<?xml version="1.0" encoding="UTF-8" standalone="no"?>
<!-- Created with Inkscape (http://www.inkscape.org/) -->

<svg
   xmlns:dc="http://purl.org/dc/elements/1.1/"
   xmlns:cc="http://creativecommons.org/ns#"
   xmlns:rdf="http://www.w3.org/1999/02/22-rdf-syntax-ns#"
   xmlns:svg="http://www.w3.org/2000/svg"
   xmlns="http://www.w3.org/2000/svg"
   xmlns:sodipodi="http://sodipodi.sourceforge.net/DTD/sodipodi-0.dtd"
   xmlns:inkscape="http://www.inkscape.org/namespaces/inkscape"
   version="1.1"
   id="svg23090"
   xml:space="preserve"
   width="666.66669"
   height="666.66669"
   viewBox="0 0 666.66669 666.66669"
   sodipodi:docname="Venezuela-flag-eagle-publicdomainvectors.org.svg"
   inkscape:version="0.92.4 (5da689c313, 2019-01-14)"><metadata
     id="metadata23096"><rdf:RDF><cc:Work
         rdf:about=""><dc:format>image/svg+xml</dc:format><dc:type
           rdf:resource="http://purl.org/dc/dcmitype/StillImage" /><dc:title></dc:title></cc:Work></rdf:RDF></metadata><defs
     id="defs23094"><clipPath
       clipPathUnits="userSpaceOnUse"
       id="clipPath23106"><path
         d="M 0,500 H 500 V 0 H 0 Z"
         id="path23104"
         inkscape:connector-curvature="0" /></clipPath></defs><sodipodi:namedview
     pagecolor="#ffffff"
     bordercolor="#666666"
     borderopacity="1"
     objecttolerance="10"
     gridtolerance="10"
     guidetolerance="10"
     inkscape:pageopacity="0"
     inkscape:pageshadow="2"
     inkscape:window-width="1920"
     inkscape:window-height="1018"
     id="namedview23092"
     showgrid="false"
     inkscape:zoom="0.88918932"
     inkscape:cx="326.2712"
     inkscape:cy="361.58193"
     inkscape:window-x="-8"
     inkscape:window-y="-8"
     inkscape:window-maximized="1"
     inkscape:current-layer="g23098" /><g
     id="g23098"
     inkscape:groupmode="layer"
     inkscape:label="Venezuela-flag-eagle-publicdomainvectors.org"
     transform="matrix(1.3333333,0,0,-1.3333333,0,666.66667)"><g
       id="g23100"><g
         id="g23102"
         clip-path="url(#clipPath23106)"><path
           d="m 383.089,319.19 c 0,0 0.108,-0.086 0.317,-0.246 h 26.66 c -17.742,18.779 -36.786,42.828 -35.98,53.65 0,0 30.668,-27.668 53.399,-26.702 -28.308,15.012 -58.319,70.963 -83.317,93.614 -15.584,14.116 -41.505,3.644 -31.85,-19.946 25.08,-61.315 -33.353,-63.384 -41.077,-57.594 -4.715,3.431 0.86,3.861 10.3,0.428 0,0 -13.303,18.445 -17.161,24.88 0,0 5.579,0 7.721,-2.573 -3.004,9.007 -18.875,37.317 -22.303,41.39 l 6.86,-1.178 c -16.726,21.587 -60.803,29.275 -61.124,16.621 -15.869,2.359 -27.236,0.641 -25.951,-10.295 1.133,-9.625 9.066,-11.774 10.078,-12.006 -3.208,7.078 15.866,18.709 27.443,-4.02 0,0 -13.501,-0.916 -22.507,0 -0.323,-3.264 14.047,-3.921 20.588,-6.393 2.253,-4.816 -0.643,-27.659 -21.014,-39.991 14.795,3.861 16.511,-2.786 16.511,-2.786 -7.724,-5.795 -66.263,-4.053 -41.179,57.261 9.652,23.593 -16.27,34.062 -31.849,19.946 -25,-22.648 -55.008,-78.603 -83.32,-93.617 22.734,-0.963 53.405,26.701 53.405,26.701 0.855,-11.553 -20.918,-38.192 -39.572,-57.39 h 25.074 c 3.451,2.388 5.488,3.99 5.488,3.99 -0.49,-1.269 -1.038,-2.601 -1.639,-3.99 h 296.095 c -0.033,0.082 -0.066,0.165 -0.096,0.246"
           style="fill:#ffcc00;fill-opacity:1;fill-rule:nonzero;stroke:none"
           id="path23108"
           inkscape:connector-curvature="0" /><path
           d="m 154.142,258.4 c -1.544,2.494 -6.435,2.122 -10.937,-0.022 -0.888,0.118 -2.097,-0.115 -3.305,-0.603 h 14.577 c -0.104,0.223 -0.216,0.432 -0.335,0.625"
           style="fill:#00247d;fill-opacity:1;fill-rule:nonzero;stroke:none"
           id="path23110"
           inkscape:connector-curvature="0" /><path
           d="m 283.148,277.796 c -8.347,6.177 -6.005,22.09 0.537,34.959 3.862,-23.485 23.271,-48.9 36.136,-47.614 -15.655,21.88 -13.296,39.894 -13.296,39.894 0,0 13.836,-27.78 34.185,-47.26 h 11.198 c -6.695,12.588 -12.804,28.391 -11.924,37.608 0,0 15.661,-21.508 31.346,-37.608 h 14.081 c -5.499,8.652 -11.586,19.964 -15.509,32.461 0,0 17.004,-17.954 37.387,-32.461 h 15.504 c -19.338,20.95 -33.57,45.705 -39.608,61.169 H 87.09 C 79.928,302.406 65.079,277.872 45.476,257.775 h 13.589 c 22.717,14.942 42.854,36.203 42.854,36.203 C 97.401,279.59 90.013,266.769 83.961,257.775 h 12.775 c 16.834,16.269 35.102,41.353 35.102,41.353 0.967,-10.158 -6.552,-28.316 -13.987,-41.353 h 9.134 c 22.581,19.428 38.308,51.003 38.308,51.003 0,0 2.36,-18.015 -13.298,-39.891 12.871,-1.285 32.279,24.128 36.141,47.611 6.542,-12.867 8.883,-28.781 0.538,-34.959 -8.092,-5.987 -13.166,-14.98 -16.809,-23.764 h 126.448 c -3.503,7.533 -8.222,14.884 -15.165,20.021"
           style="fill:#00247d;fill-opacity:1;fill-rule:nonzero;stroke:none"
           id="path23112"
           inkscape:connector-curvature="0" /><path
           d="m 436.176,294.741 c -5.097,3.396 -15.364,12.834 -26.11,24.203 h -26.66 c 3.184,-2.442 29.818,-22.392 52.77,-24.203"
           style="fill:#00247d;fill-opacity:1;fill-rule:nonzero;stroke:none"
           id="path23114"
           inkscape:connector-curvature="0" /><path
           d="m 35.647,298.483 c 17.928,1.416 38.105,13.902 47.594,20.461 H 58.167 C 48.774,309.28 40.173,301.5 35.647,298.483"
           style="fill:#00247d;fill-opacity:1;fill-rule:nonzero;stroke:none"
           id="path23116"
           inkscape:connector-curvature="0" /><path
           d="m 250.653,180.523 c 0,0 26.165,-27.881 39.147,-36.34 -0.928,13.872 -18.235,34.953 -15.657,50.611 0,0 33.242,-30.884 43.964,-38.604 -5.147,21.232 -50.828,79.998 -48.683,96.083 7.723,-14.798 34.745,-21.448 42.894,-36.03 4.584,-8.21 2.788,-17.803 0.857,-22.952 0.429,-4.077 6.219,-6.217 10.511,-6.217 0,0 4.288,-6.861 12.005,-2.573 -2.141,-1.072 -9.864,2.788 -8.793,5.36 0,0 4.569,4.658 1.397,6.862 -6.007,4.185 -6.114,8.794 -4.236,11.798 8.896,14.229 14.636,2.737 13.349,-0.322 0.964,-1.767 4.829,-3.218 8.688,-0.321 1.284,-2.735 1.284,-7.72 -0.163,-10.775 6.433,1.285 6.433,13.028 2.735,14.475 0,0 0.806,5.228 0,8.123 -0.801,2.896 -16.566,1.528 -20.694,2.542 -0.644,12.011 8.577,5.579 9.653,4.722 1.07,-0.854 4.714,1.931 6.43,4.719 2.361,0 7.079,-6.651 4.505,-9.441 6.435,7.078 -1.075,12.016 -3.215,13.945 1.071,7.504 -5.369,10.505 -7.72,8.15 -2.15,-2.149 -11.371,-15.659 -15.014,-16.945 -1.934,3.004 -3.217,13.937 -1.715,14.796 1.498,0.862 5.925,0.354 7.421,2.927 1.505,2.572 0.725,5.229 0.725,5.229 2.976,1.124 8.075,-2.027 6.578,-3.745 3.642,4.291 -3.786,8.464 -7.005,8.031 -4.503,2.146 -9.393,2.518 -10.939,0.021 -3.859,-6.239 0.697,-27.693 -4.237,-27.908 -5.81,-1.233 -7.809,15.293 -15.128,31.031 H 171.865 c -6.016,-14.499 -8.133,-28.422 -13.488,-27.289 -4.78,0.213 -0.652,20.361 -3.9,27.289 H 139.9 c -3.17,-1.28 -6.337,-4.324 -3.696,-7.429 -1.501,1.717 3.594,4.868 6.57,3.74 0,0 -0.778,-2.653 0.726,-5.227 1.502,-2.572 5.923,-2.06 7.427,-2.921 1.495,-0.858 0.212,-11.795 -1.719,-14.799 -3.643,1.288 -12.864,14.799 -15.013,16.944 -2.354,2.355 -8.792,-0.643 -7.72,-8.148 -2.145,-1.931 -9.65,-6.866 -3.217,-13.944 -2.571,2.787 2.145,9.438 4.503,9.438 1.72,-2.785 5.36,-5.575 6.434,-4.719 1.075,0.858 10.295,7.291 9.65,-4.719 -4.125,-1.018 -19.89,0.351 -20.694,-2.545 -0.805,-2.896 0,-8.123 0,-8.123 -3.699,-1.449 -3.699,-13.188 2.734,-14.476 -1.445,3.055 -1.445,8.04 -0.161,10.777 3.861,-2.896 7.723,-1.451 8.686,0.317 -1.285,3.057 4.458,14.553 13.352,0.325 1.876,-3.002 1.771,-7.614 -4.235,-11.796 -3.172,-2.207 1.393,-6.863 1.393,-6.863 1.072,-2.572 -6.645,-6.428 -8.791,-5.361 7.716,-4.291 12.008,2.575 12.008,2.575 4.292,0 10.08,2.14 10.511,6.217 -1.931,5.15 -3.731,14.744 0.855,22.949 8.15,14.582 35.175,21.233 42.894,36.03 2.145,-16.082 -43.539,-74.847 -48.683,-96.082 10.723,7.718 43.965,38.604 43.965,38.604 2.575,-15.655 -13.02,-44.027 -13.942,-57.903 11.503,6.171 29.278,37.099 41.181,41.603 0,0 3.989,-39.165 7.781,-59.443 h 7.628 c 6.658,22.301 10.326,57.727 10.326,57.727"
           style="fill:#cf142b;fill-opacity:1;fill-rule:nonzero;stroke:none"
           id="path23118"
           inkscape:connector-curvature="0" /><path
           d="m 440.996,240.693 c -6.455,5.15 -12.548,10.954 -18.203,17.082 h -15.504 c 10.965,-7.801 22.906,-14.607 33.707,-17.082"
           style="fill:#cf142b;fill-opacity:1;fill-rule:nonzero;stroke:none"
           id="path23120"
           inkscape:connector-curvature="0" /><path
           d="m 110.821,247.01 c 5.667,2.643 11.089,6.399 16.164,10.765 h -9.134 c -2.455,-4.304 -4.901,-8.049 -7.03,-10.765"
           style="fill:#cf142b;fill-opacity:1;fill-rule:nonzero;stroke:none"
           id="path23122"
           inkscape:connector-curvature="0" /><path
           d="m 397.891,240.693 c 0,0 -5.805,6.579 -12.48,17.082 H 371.33 c 10.335,-10.609 20.681,-18.871 26.561,-17.082"
           style="fill:#cf142b;fill-opacity:1;fill-rule:nonzero;stroke:none"
           id="path23124"
           inkscape:connector-curvature="0" /><path
           d="m 361.002,243.266 c -2.727,3.476 -5.973,8.644 -9.094,14.509 H 340.71 c 6.225,-5.958 13.057,-11.138 20.292,-14.509"
           style="fill:#cf142b;fill-opacity:1;fill-rule:nonzero;stroke:none"
           id="path23126"
           inkscape:connector-curvature="0" /><path
           d="m 30.823,244.438 c 9.029,2.068 18.856,7.164 28.242,13.337 H 45.476 c -4.633,-4.747 -9.529,-9.25 -14.653,-13.337"
           style="fill:#cf142b;fill-opacity:1;fill-rule:nonzero;stroke:none"
           id="path23128"
           inkscape:connector-curvature="0" /><path
           d="m 73.931,244.438 c 5.166,-1.572 13.779,4.616 22.805,13.337 H 83.961 c -5.584,-8.297 -10.03,-13.337 -10.03,-13.337"
           style="fill:#cf142b;fill-opacity:1;fill-rule:nonzero;stroke:none"
           id="path23130"
           inkscape:connector-curvature="0" /><path
           d="m 176.194,273.626 7.23,-5.648 2.825,3.614"
           style="fill:#ffffff;fill-opacity:1;fill-rule:nonzero;stroke:none"
           id="path23132"
           inkscape:connector-curvature="0" /><path
           d="m 176.194,273.626 9.169,-0.32 -0.159,-4.585"
           style="fill:#ffffff;fill-opacity:1;fill-rule:nonzero;stroke:none"
           id="path23134"
           inkscape:connector-curvature="0" /><path
           d="m 185.136,279.657 -3.138,-8.622 4.311,-1.569"
           style="fill:#ffffff;fill-opacity:1;fill-rule:nonzero;stroke:none"
           id="path23136"
           inkscape:connector-curvature="0" /><path
           d="m 185.136,279.657 2.53,-8.82 -4.411,-1.263"
           style="fill:#ffffff;fill-opacity:1;fill-rule:nonzero;stroke:none"
           id="path23138"
           inkscape:connector-curvature="0" /><path
           d="m 193.636,273.017 -9.17,0.32 -0.16,-4.585"
           style="fill:#ffffff;fill-opacity:1;fill-rule:nonzero;stroke:none"
           id="path23140"
           inkscape:connector-curvature="0" /><path
           d="m 193.636,273.017 -7.606,-5.131 -2.567,3.803"
           style="fill:#ffffff;fill-opacity:1;fill-rule:nonzero;stroke:none"
           id="path23142"
           inkscape:connector-curvature="0" /><path
           d="m 189.947,262.881 -2.529,8.82 -4.41,-1.265"
           style="fill:#ffffff;fill-opacity:1;fill-rule:nonzero;stroke:none"
           id="path23144"
           inkscape:connector-curvature="0" /><path
           d="m 189.947,262.881 -7.231,5.649 2.825,3.615"
           style="fill:#ffffff;fill-opacity:1;fill-rule:nonzero;stroke:none"
           id="path23146"
           inkscape:connector-curvature="0" /><path
           d="m 179.167,263.258 7.607,5.13 -2.566,3.803"
           style="fill:#ffffff;fill-opacity:1;fill-rule:nonzero;stroke:none"
           id="path23148"
           inkscape:connector-curvature="0" /><path
           d="m 179.167,263.258 3.138,8.622 4.311,-1.569"
           style="fill:#ffffff;fill-opacity:1;fill-rule:nonzero;stroke:none"
           id="path23150"
           inkscape:connector-curvature="0" /><path
           d="m 187.347,292.943 4.862,-7.781 3.891,2.432"
           style="fill:#ffffff;fill-opacity:1;fill-rule:nonzero;stroke:none"
           id="path23152"
           inkscape:connector-curvature="0" /><path
           d="m 187.347,292.943 8.507,-3.437 -1.718,-4.254"
           style="fill:#ffffff;fill-opacity:1;fill-rule:nonzero;stroke:none"
           id="path23154"
           inkscape:connector-curvature="0" /><path
           d="m 197.813,295.552 -5.898,-7.028 3.515,-2.949"
           style="fill:#ffffff;fill-opacity:1;fill-rule:nonzero;stroke:none"
           id="path23156"
           inkscape:connector-curvature="0" /><path
           d="m 197.813,295.552 -0.64,-9.152 -4.577,0.32"
           style="fill:#ffffff;fill-opacity:1;fill-rule:nonzero;stroke:none"
           id="path23158"
           inkscape:connector-curvature="0" /><path
           d="m 203.529,286.406 -8.508,3.437 -1.718,-4.254"
           style="fill:#ffffff;fill-opacity:1;fill-rule:nonzero;stroke:none"
           id="path23160"
           inkscape:connector-curvature="0" /><path
           d="m 203.529,286.406 -8.903,-2.219 -1.11,4.451"
           style="fill:#ffffff;fill-opacity:1;fill-rule:nonzero;stroke:none"
           id="path23162"
           inkscape:connector-curvature="0" /><path
           d="m 196.595,278.144 0.64,9.151 -4.576,0.321"
           style="fill:#ffffff;fill-opacity:1;fill-rule:nonzero;stroke:none"
           id="path23164"
           inkscape:connector-curvature="0" /><path
           d="m 196.595,278.144 -4.862,7.78 3.891,2.43"
           style="fill:#ffffff;fill-opacity:1;fill-rule:nonzero;stroke:none"
           id="path23166"
           inkscape:connector-curvature="0" /><path
           d="m 186.594,282.184 8.903,2.22 -1.11,4.45"
           style="fill:#ffffff;fill-opacity:1;fill-rule:nonzero;stroke:none"
           id="path23168"
           inkscape:connector-curvature="0" /><path
           d="m 186.594,282.184 5.898,7.028 3.515,-2.948"
           style="fill:#ffffff;fill-opacity:1;fill-rule:nonzero;stroke:none"
           id="path23170"
           inkscape:connector-curvature="0" /><path
           d="m 204.434,307.282 1.908,-8.976 4.487,0.955"
           style="fill:#ffffff;fill-opacity:1;fill-rule:nonzero;stroke:none"
           id="path23172"
           inkscape:connector-curvature="0" /><path
           d="m 204.434,307.282 6.819,-6.14 -3.069,-3.409"
           style="fill:#ffffff;fill-opacity:1;fill-rule:nonzero;stroke:none"
           id="path23174"
           inkscape:connector-curvature="0" /><path
           d="m 215.162,306.154 -7.947,-4.588 2.294,-3.973"
           style="fill:#ffffff;fill-opacity:1;fill-rule:nonzero;stroke:none"
           id="path23176"
           inkscape:connector-curvature="0" /><path
           d="m 215.162,306.154 -3.732,-8.382 -4.192,1.866"
           style="fill:#ffffff;fill-opacity:1;fill-rule:nonzero;stroke:none"
           id="path23178"
           inkscape:connector-curvature="0" /><path
           d="m 217.404,295.603 -6.819,6.14 -3.069,-3.409"
           style="fill:#ffffff;fill-opacity:1;fill-rule:nonzero;stroke:none"
           id="path23180"
           inkscape:connector-curvature="0" /><path
           d="m 217.404,295.603 -9.125,0.96 0.48,4.562"
           style="fill:#ffffff;fill-opacity:1;fill-rule:nonzero;stroke:none"
           id="path23182"
           inkscape:connector-curvature="0" /><path
           d="m 208.063,290.21 3.732,8.383 -4.191,1.865"
           style="fill:#ffffff;fill-opacity:1;fill-rule:nonzero;stroke:none"
           id="path23184"
           inkscape:connector-curvature="0" /><path
           d="m 208.063,290.21 -1.907,8.975 4.487,0.954"
           style="fill:#ffffff;fill-opacity:1;fill-rule:nonzero;stroke:none"
           id="path23186"
           inkscape:connector-curvature="0" /><path
           d="m 200.047,297.427 9.125,-0.958 0.48,4.563"
           style="fill:#ffffff;fill-opacity:1;fill-rule:nonzero;stroke:none"
           id="path23188"
           inkscape:connector-curvature="0" /><path
           d="m 200.047,297.427 7.947,4.589 2.293,-3.973"
           style="fill:#ffffff;fill-opacity:1;fill-rule:nonzero;stroke:none"
           id="path23190"
           inkscape:connector-curvature="0" /><path
           d="m 225.396,314.911 -1.278,-9.086 4.543,-0.639"
           style="fill:#ffffff;fill-opacity:1;fill-rule:nonzero;stroke:none"
           id="path23192"
           inkscape:connector-curvature="0" /><path
           d="m 225.396,314.911 4.307,-8.102 -4.051,-2.153"
           style="fill:#ffffff;fill-opacity:1;fill-rule:nonzero;stroke:none"
           id="path23194"
           inkscape:connector-curvature="0" /><path
           d="m 235.09,310.183 -9.037,-1.594 0.798,-4.518"
           style="fill:#ffffff;fill-opacity:1;fill-rule:nonzero;stroke:none"
           id="path23196"
           inkscape:connector-curvature="0" /><path
           d="m 235.09,310.183 -6.374,-6.601 -3.3,3.188"
           style="fill:#ffffff;fill-opacity:1;fill-rule:nonzero;stroke:none"
           id="path23198"
           inkscape:connector-curvature="0" /><path
           d="m 233.588,299.501 -4.307,8.102 -4.051,-2.155"
           style="fill:#ffffff;fill-opacity:1;fill-rule:nonzero;stroke:none"
           id="path23200"
           inkscape:connector-curvature="0" /><path
           d="m 233.588,299.501 -8.246,4.022 2.011,4.124"
           style="fill:#ffffff;fill-opacity:1;fill-rule:nonzero;stroke:none"
           id="path23202"
           inkscape:connector-curvature="0" /><path
           d="m 222.966,297.627 6.374,6.602 -3.3,3.186"
           style="fill:#ffffff;fill-opacity:1;fill-rule:nonzero;stroke:none"
           id="path23204"
           inkscape:connector-curvature="0" /><path
           d="m 222.966,297.627 1.277,9.087 4.543,-0.639"
           style="fill:#ffffff;fill-opacity:1;fill-rule:nonzero;stroke:none"
           id="path23206"
           inkscape:connector-curvature="0" /><path
           d="m 217.902,307.152 8.247,-4.022 2.011,4.122"
           style="fill:#ffffff;fill-opacity:1;fill-rule:nonzero;stroke:none"
           id="path23208"
           inkscape:connector-curvature="0" /><path
           d="m 217.902,307.152 9.036,1.593 0.797,-4.517"
           style="fill:#ffffff;fill-opacity:1;fill-rule:nonzero;stroke:none"
           id="path23210"
           inkscape:connector-curvature="0" /><path
           d="m 247.701,314.911 -4.308,-8.102 4.051,-2.153"
           style="fill:#ffffff;fill-opacity:1;fill-rule:nonzero;stroke:none"
           id="path23212"
           inkscape:connector-curvature="0" /><path
           d="m 247.701,314.911 1.277,-9.086 -4.542,-0.639"
           style="fill:#ffffff;fill-opacity:1;fill-rule:nonzero;stroke:none"
           id="path23214"
           inkscape:connector-curvature="0" /><path
           d="m 255.194,307.152 -9.036,1.593 -0.797,-4.517"
           style="fill:#ffffff;fill-opacity:1;fill-rule:nonzero;stroke:none"
           id="path23216"
           inkscape:connector-curvature="0" /><path
           d="m 255.194,307.152 -8.246,-4.022 -2.011,4.122"
           style="fill:#ffffff;fill-opacity:1;fill-rule:nonzero;stroke:none"
           id="path23218"
           inkscape:connector-curvature="0" /><path
           d="m 250.13,297.627 -1.277,9.087 -4.543,-0.639"
           style="fill:#ffffff;fill-opacity:1;fill-rule:nonzero;stroke:none"
           id="path23220"
           inkscape:connector-curvature="0" /><path
           d="m 250.13,297.627 -6.374,6.602 3.3,3.186"
           style="fill:#ffffff;fill-opacity:1;fill-rule:nonzero;stroke:none"
           id="path23222"
           inkscape:connector-curvature="0" /><path
           d="m 239.507,299.501 8.247,4.022 -2.011,4.124"
           style="fill:#ffffff;fill-opacity:1;fill-rule:nonzero;stroke:none"
           id="path23224"
           inkscape:connector-curvature="0" /><path
           d="m 239.507,299.501 4.308,8.102 4.051,-2.155"
           style="fill:#ffffff;fill-opacity:1;fill-rule:nonzero;stroke:none"
           id="path23226"
           inkscape:connector-curvature="0" /><path
           d="m 238.007,310.183 6.373,-6.601 3.301,3.188"
           style="fill:#ffffff;fill-opacity:1;fill-rule:nonzero;stroke:none"
           id="path23228"
           inkscape:connector-curvature="0" /><path
           d="m 238.007,310.183 9.036,-1.594 -0.797,-4.518"
           style="fill:#ffffff;fill-opacity:1;fill-rule:nonzero;stroke:none"
           id="path23230"
           inkscape:connector-curvature="0" /><path
           d="m 268.662,307.282 -6.818,-6.14 3.068,-3.409"
           style="fill:#ffffff;fill-opacity:1;fill-rule:nonzero;stroke:none"
           id="path23232"
           inkscape:connector-curvature="0" /><path
           d="m 268.662,307.282 -1.908,-8.976 -4.487,0.955"
           style="fill:#ffffff;fill-opacity:1;fill-rule:nonzero;stroke:none"
           id="path23234"
           inkscape:connector-curvature="0" /><path
           d="m 273.05,297.427 -7.947,4.589 -2.294,-3.973"
           style="fill:#ffffff;fill-opacity:1;fill-rule:nonzero;stroke:none"
           id="path23236"
           inkscape:connector-curvature="0" /><path
           d="m 273.05,297.427 -9.126,-0.958 -0.48,4.563"
           style="fill:#ffffff;fill-opacity:1;fill-rule:nonzero;stroke:none"
           id="path23238"
           inkscape:connector-curvature="0" /><path
           d="m 265.033,290.21 1.907,8.975 -4.487,0.954"
           style="fill:#ffffff;fill-opacity:1;fill-rule:nonzero;stroke:none"
           id="path23240"
           inkscape:connector-curvature="0" /><path
           d="m 265.033,290.21 -3.732,8.383 4.191,1.865"
           style="fill:#ffffff;fill-opacity:1;fill-rule:nonzero;stroke:none"
           id="path23242"
           inkscape:connector-curvature="0" /><path
           d="m 255.692,295.603 9.125,0.96 -0.48,4.562"
           style="fill:#ffffff;fill-opacity:1;fill-rule:nonzero;stroke:none"
           id="path23244"
           inkscape:connector-curvature="0" /><path
           d="m 255.692,295.603 6.819,6.14 3.07,-3.409"
           style="fill:#ffffff;fill-opacity:1;fill-rule:nonzero;stroke:none"
           id="path23246"
           inkscape:connector-curvature="0" /><path
           d="m 257.935,306.154 3.731,-8.382 4.191,1.866"
           style="fill:#ffffff;fill-opacity:1;fill-rule:nonzero;stroke:none"
           id="path23248"
           inkscape:connector-curvature="0" /><path
           d="m 257.935,306.154 7.946,-4.588 -2.294,-3.973"
           style="fill:#ffffff;fill-opacity:1;fill-rule:nonzero;stroke:none"
           id="path23250"
           inkscape:connector-curvature="0" /><path
           d="m 285.749,292.943 -8.508,-3.437 1.719,-4.254"
           style="fill:#ffffff;fill-opacity:1;fill-rule:nonzero;stroke:none"
           id="path23252"
           inkscape:connector-curvature="0" /><path
           d="m 285.749,292.943 -4.862,-7.781 -3.892,2.432"
           style="fill:#ffffff;fill-opacity:1;fill-rule:nonzero;stroke:none"
           id="path23254"
           inkscape:connector-curvature="0" /><path
           d="m 286.502,282.184 -5.898,7.028 -3.514,-2.948"
           style="fill:#ffffff;fill-opacity:1;fill-rule:nonzero;stroke:none"
           id="path23256"
           inkscape:connector-curvature="0" /><path
           d="m 286.502,282.184 -8.901,2.22 1.108,4.45"
           style="fill:#ffffff;fill-opacity:1;fill-rule:nonzero;stroke:none"
           id="path23258"
           inkscape:connector-curvature="0" /><path
           d="m 276.501,278.144 4.862,7.78 -3.89,2.431"
           style="fill:#ffffff;fill-opacity:1;fill-rule:nonzero;stroke:none"
           id="path23260"
           inkscape:connector-curvature="0" /><path
           d="m 276.501,278.144 -0.641,9.151 4.578,0.321"
           style="fill:#ffffff;fill-opacity:1;fill-rule:nonzero;stroke:none"
           id="path23262"
           inkscape:connector-curvature="0" /><path
           d="m 269.567,286.406 8.904,-2.219 1.108,4.451"
           style="fill:#ffffff;fill-opacity:1;fill-rule:nonzero;stroke:none"
           id="path23264"
           inkscape:connector-curvature="0" /><path
           d="m 269.567,286.406 8.508,3.437 1.718,-4.254"
           style="fill:#ffffff;fill-opacity:1;fill-rule:nonzero;stroke:none"
           id="path23266"
           inkscape:connector-curvature="0" /><path
           d="m 275.282,295.552 0.642,-9.152 4.576,0.32"
           style="fill:#ffffff;fill-opacity:1;fill-rule:nonzero;stroke:none"
           id="path23268"
           inkscape:connector-curvature="0" /><path
           d="m 275.282,295.552 5.899,-7.028 -3.513,-2.949"
           style="fill:#ffffff;fill-opacity:1;fill-rule:nonzero;stroke:none"
           id="path23270"
           inkscape:connector-curvature="0" /><path
           d="m 296.902,273.626 -9.17,-0.32 0.162,-4.585"
           style="fill:#ffffff;fill-opacity:1;fill-rule:nonzero;stroke:none"
           id="path23272"
           inkscape:connector-curvature="0" /><path
           d="m 296.902,273.626 -7.23,-5.648 -2.825,3.614"
           style="fill:#ffffff;fill-opacity:1;fill-rule:nonzero;stroke:none"
           id="path23274"
           inkscape:connector-curvature="0" /><path
           d="m 293.929,263.258 -3.139,8.622 -4.311,-1.569"
           style="fill:#ffffff;fill-opacity:1;fill-rule:nonzero;stroke:none"
           id="path23276"
           inkscape:connector-curvature="0" /><path
           d="m 293.929,263.258 -7.607,5.13 2.566,3.803"
           style="fill:#ffffff;fill-opacity:1;fill-rule:nonzero;stroke:none"
           id="path23278"
           inkscape:connector-curvature="0" /><path
           d="m 283.148,262.881 7.232,5.649 -2.823,3.615"
           style="fill:#ffffff;fill-opacity:1;fill-rule:nonzero;stroke:none"
           id="path23280"
           inkscape:connector-curvature="0" /><path
           d="m 283.148,262.881 2.532,8.82 4.408,-1.265"
           style="fill:#ffffff;fill-opacity:1;fill-rule:nonzero;stroke:none"
           id="path23282"
           inkscape:connector-curvature="0" /><path
           d="m 279.461,273.018 7.606,-5.132 2.565,3.803"
           style="fill:#ffffff;fill-opacity:1;fill-rule:nonzero;stroke:none"
           id="path23284"
           inkscape:connector-curvature="0" /><path
           d="m 279.461,273.018 9.17,0.319 0.159,-4.585"
           style="fill:#ffffff;fill-opacity:1;fill-rule:nonzero;stroke:none"
           id="path23286"
           inkscape:connector-curvature="0" /><path
           d="m 287.96,279.657 -2.528,-8.82 4.408,-1.263"
           style="fill:#ffffff;fill-opacity:1;fill-rule:nonzero;stroke:none"
           id="path23288"
           inkscape:connector-curvature="0" /><path
           d="m 287.96,279.657 3.138,-8.622 -4.311,-1.569"
           style="fill:#ffffff;fill-opacity:1;fill-rule:nonzero;stroke:none"
           id="path23290"
           inkscape:connector-curvature="0" /></g></g></g></svg>