<?xml version="1.0"?>
<svg xmlns:rdf="http://www.w3.org/1999/02/22-rdf-syntax-ns#" xmlns="http://www.w3.org/2000/svg" xmlns:cc="http://creativecommons.org/ns#" xmlns:dc="http://purl.org/dc/elements/1.1/" id="svg3657" viewBox="0 0 64 64" version="1.1">
  <defs id="defs3659">
    <filter id="filter2824" color-interpolation-filters="sRGB">
      <feGaussianBlur id="feGaussianBlur2826" stdDeviation="1.5" result="result6"/>
      <feComposite id="feComposite2828" operator="atop" in="SourceGraphic" in2="result6" result="result8"/>
      <feComposite id="feComposite2830" operator="atop" in="result8" in2="SourceAlpha" result="result9"/>
    </filter>
    <filter id="filter5623" color-interpolation-filters="sRGB">
      <feGaussianBlur id="feGaussianBlur5625" stdDeviation="1.549091"/>
    </filter>
  </defs>
  <g id="layer1" fill-rule="evenodd">
    <path id="path5605" opacity=".82778" d="m12.269 66.746c1.3451 10.649 21.949 11.542 22.615 1.3199 0.87386-13.398 9.5274-8.2341 9.9805-25.78 12.387-7.5355 22.094-14.953 16.389-19.778-4.3307-3.6631-6.4821-4.3525-8.324-5.4877-14.83-9.1399 8.8837 2.5843-0.79784 10.538-3.48 2.1331-5.7532 2.0737-9.6725 2.0973-2.6487-2.1925-4.8862-3.4619-10.418-1.8134-6.7894-2.8772-11.278-2.3526-17.536-0.0214-5.0417-0.25519-3.8709 0.70777-8.4983 1.9772-4.0441 0.76344-5.1225 1.6624-8.6909-0.40018-15.12-8.2952 12.974-23.253-10.24-6.8389-4.9412 3.4938 6.3019 16.547 17.195 19.608l0.13525 0.0676c-0.64322 16.157 5.8397 8.4958 7.8626 24.512z" transform="matrix(.5 0 0 .5 20.571 6.9797)" filter="url(#filter5623)" stroke="#0c0000" stroke-width=".4" fill="#1a1a1a"/>
    <path id="path2454" opacity=".82778" d="m10.269 66.746c1.3451 10.649 21.949 11.542 22.615 1.3199 0.77188-11.834 7.6135-9.1865 9.5122-20.499 0.25085-1.4947 0.41542-3.2331 0.4683-5.2807 12.387-7.5355 22.094-14.953 16.389-19.778-4.3307-3.6631-6.4821-4.3525-8.324-5.4877-14.83-9.1399 8.8837 2.5843-0.79784 10.538-3.48 2.1331-5.7532 2.0737-9.6725 2.0973-2.6487-2.1925-4.8862-3.4619-10.418-1.8134-6.7894-2.8772-11.278-2.3526-17.536-0.0214-5.0417-0.25519-3.8709 0.70777-8.4983 1.9772-4.0441 0.76344-5.1225 1.6624-8.6909-0.40018-15.12-8.2952 12.974-23.253-10.24-6.8389-4.9412 3.4938 6.3019 16.547 17.195 19.608l0.13525 0.0676c-0.0787 1.9763-0.0507 3.5962 0.0626 4.9467 0.81336 9.6905 6.0245 5.5082 7.8 19.565z" transform="matrix(.5 0 0 .5 20.571 6.9797)" filter="url(#filter2824)" stroke="#0c0000" stroke-width=".4" fill="#06c"/>
    <path id="path3696" opacity=".010526" stroke-linejoin="round" d="m62.467 31.893a30.965 24.449 0 1 1 -61.929 0 30.965 24.449 0 1 1 61.929 0z" transform="matrix(1.0314 0 0 1.3063 -.49171 -9.6614)" stroke="#20363c" stroke-linecap="round" stroke-width=".1" fill="#06c"/>
  </g>
  <metadata>
    <rdf:RDF>
      <cc:Work>
        <dc:format>image/svg+xml</dc:format>
        <dc:type rdf:resource="http://purl.org/dc/dcmitype/StillImage"/>
        <cc:license rdf:resource="http://creativecommons.org/licenses/publicdomain/"/>
        <dc:publisher>
          <cc:Agent rdf:about="http://openclipart.org/">
            <dc:title>Openclipart</dc:title>
          </cc:Agent>
        </dc:publisher>
      </cc:Work>
      <cc:License rdf:about="http://creativecommons.org/licenses/publicdomain/">
        <cc:permits rdf:resource="http://creativecommons.org/ns#Reproduction"/>
        <cc:permits rdf:resource="http://creativecommons.org/ns#Distribution"/>
        <cc:permits rdf:resource="http://creativecommons.org/ns#DerivativeWorks"/>
      </cc:License>
    </rdf:RDF>
  </metadata>
</svg>
