<?xml version="1.0"?>
<svg xmlns:rdf="http://www.w3.org/1999/02/22-rdf-syntax-ns#" xmlns="http://www.w3.org/2000/svg" xmlns:cc="http://web.resource.org/cc/" xmlns:dc="http://purl.org/dc/elements/1.1/" id="Layer_1" xml:space="preserve" viewBox="0 0 400.736 127.816" version="1.0">
<g id="g5" stroke="#000" stroke-width=".036" stroke-miterlimit="10" fill-rule="evenodd">
	<path id="path7" d="m72.061 58.319c-2.664 0.792-5.184 2.016-7.74 3.78s-5.292 3.961-7.38 6.769c-2.052 2.809-3.852 5.544-4.968 9.864-1.152 4.355-2.412 10.008-1.764 15.983 0.684 6.015 1.692 14.655 5.796 19.655 4.14 5.01 10.44 7.99 18.756 10.01 8.388 2.02 21.096 1.62 30.919 2.02 9.8 0.36 18.8 0.43 27.4 0.21 0.29 0.36 0.58 0.72 0.86 1.08 4.86 0.04 9.72 0.07 14.62 0.11 0.32-0.32 0.65-0.65 0.97-1.01 10.95 0.15 26.93 0.22 48.82 0.22 21.99 0 48.74-0.11 81.72-0.29 2.12-0.18 4.03-0.54 5.79-1.08 1.73-0.58 3.24-1.3 4.61-2.23 3.17-0.43 6.19-1.44 9.25-3.13 3.03-1.7 6.34-4.22 8.86-6.95 2.48-2.77 4.32-5.4 6.01-9.4 1.66-3.994 3.31-9.826 3.93-14.326 0.57-4.536 0.14-8.676-0.36-12.456-0.54-3.816-1.41-7.092-2.67-10.116 4.72 0.18 9.72 0.648 15.3 1.44 5.58 0.756 11.85 1.224 17.82 3.204 5.98 1.979 15.59 7.092 17.75 8.531 2.12 1.404 3.1 2.088 4.93 3.78 1.73 6.336 3.24 11.16 5.15 14.472 1.87 3.311 3.64 4.821 5.9 5.401 2.27 0.58 5.12 0.94 7.6-1.94 2.45-2.921 5.29-8.141 7.06-15.233 1.8-7.128 3.2-17.353 3.56-26.965 0.4-9.612 0.07-21.348-1.3-30.168-1.36-8.784-4.14-17.172-6.8-22.14-2.74-4.932-6.59-6.804-9.25-7.308-2.7-0.504-4.83 1.152-6.77 4.392-1.91 3.312-3.46 8.208-4.72 15.048-3.78 4.536-8.49 8.208-14.47 11.16-5.94 2.988-9.03 4.464-20.99 6.48-11.98 2.052-28.44 3.888-50.22 5.616-2.48 0-4.96 0-7.45-0.036-0.43-0.216-0.9-0.432-1.37-0.648-4.35 0.072-8.71 0.144-13.1 0.216-0.32 0.324-0.65 0.648-0.97 1.008-7.67 0-21.1 0.252-41.01 0.792-20.05 0.54-51.12 1.8-77.87 2.376-26.74 0.612-53.312 0.972-81.176 1.116-0.396-0.54-0.792-1.08-1.188-1.62-4.32 0-8.64 0-12.96 0.036-0.576 0.612-1.188 1.224-1.8 1.836-4.176 0.324-8.388 0.684-12.6 1.044-3.6-1.332-7.02-2.196-10.512-2.664-3.456-0.468-6.768-0.54-10.116-0.18-0.18-0.468-0.684-0.792-1.512-0.972-0.864-0.18-1.98-0.216-3.492-0.108 0.108-0.648-0.36-1.008-1.332-1.152-1.044-0.108-2.556 0.036-4.644 0.432-1.728 1.908-2.664 4.14-2.88 6.84-0.252 2.7 0.648 6.804 1.44 9.108 0.828 2.304 1.944 3.816 3.42 4.608 2.088-0.036 4.176-0.071 6.3-0.107 0.144-0.433 0.288-0.865 0.468-1.333 1.476 0.036 2.628-0.036 3.492-0.216s1.404-0.468 1.656-0.864c4.176-0.324 7.632-0.864 10.584-1.656 2.952-0.828 5.22-1.836 6.948-3.096 4.392-0.108 8.82-0.252 13.248-0.396 0.72 0.54 1.44 1.08 2.196 1.62 3.42-0.036 6.84-0.072 10.296-0.144 0.468-0.396 0.972-0.792 1.476-1.188 1.26 0.144 2.736 0.288 4.5 0.432s3.711 0.289 5.979 0.433zm45.109 6.804c-4-0.107-8.68-0.107-14.26 0.072-5.613 0.18-13.857 0.144-19.113 0.972-5.22 0.828-8.712 1.8-12.06 3.996-3.312 2.232-5.976 5.868-7.632 9.108-1.692 3.204-2.088 6.156-2.34 9.972-0.252 3.853-0.36 9.036 0.864 12.777 1.224 3.75 3.024 7.42 6.444 9.54 3.456 2.13 6.588 2.52 14.004 3.1 7.452 0.58 17.353 0.72 30.243 0.36-2.63-3.53-4.43-7.49-5.51-12.02-1.08-4.577-1.48-10.193-0.9-15.125 0.57-4.896 2.52-10.332 4.25-14.184 1.72-3.816 3.7-6.624 6.01-8.568zm34.74 2.773c-0.15 0.396-0.29 0.792-0.47 1.188-4.07 0.036-8.17 0.108-12.28 0.181-0.14-0.324-0.32-0.648-0.5-0.973-2.88 0.145-5.44 0.721-7.78 1.765-2.37 1.08-4.53 2.664-6.26 4.607-1.73 1.908-3.06 4.176-4.03 6.876-1.01 2.7-1.77 5.688-1.84 9.145-0.11 3.456 0.15 8.208 1.33 11.445 1.19 3.21 3.5 5.91 5.76 7.71 2.27 1.8 4.79 2.8 7.71 3.02 0.36-0.32 0.75-0.65 1.15-1.01 4.28-0.03 8.6-0.11 12.92-0.18 0.4 0.33 0.8 0.65 1.19 0.97 20.02-0.28 37.87-0.39 54.47-0.36 16.56 0.04 32.83 0.62 44.17 0.62 11.31 0.03 16.89-0.33 23.08-0.51s10.44-0.32 13.79-0.54c3.31-0.25 5.25-0.57 5.97-0.93 2.41-3.14 4.21-6.48 5.47-10.23 1.27-3.743 2.13-7.812 1.98-11.987-0.18-4.176-1.04-9.359-3.02-12.888-2.05-3.564-6.37-6.517-8.93-8.172-2.59-1.62-3.13-1.296-6.33-1.584-3.24-0.252-5.76-0.036-12.82 0.036-7.06 0.107-14.94 0.252-29.19 0.468-14.37 0.216-41.37 0.647-55.8 0.899-14.33 0.218-24.09 0.361-29.74 0.434z"/>
	<path id="path9" d="m71.413 55.979c5.22-0.324 11.52-0.504 19.44-0.54 7.812-0.144 16.887-0.144 27.357 0 9.43 0.612 13.36 1.044 12.21 1.296-1.44 0.108-12.86-0.252-19.66-0.108s-14.939 0.792-20.519 0.972c-5.652 0.036-9.9-0.252-13.032-0.432-3.132-0.324-5.112-0.72-5.796-1.188z" fill="#fff"/>
	<path id="path11" d="m120.23 61.811c-6.91-0.144-13.5-0.108-20.305 0.108-6.876 0.036-14.58-0.144-20.052 0.972-5.616 1.152-9.396 3.097-12.744 5.977-3.348 2.736-5.616 5.796-7.092 10.584-1.44 4.645-2.844 12.204-1.872 17.532 0.756 5.256 2.628 11.016 6.876 14.216 4.32 3.06 10.404 4.54 18.648 4.43-4.932 0-8.784-0.72-11.988-1.76-3.204-1.08-5.184-2.38-6.912-5.01-1.836-2.88-3.456-7.63-4.032-11.48-0.72-3.888-0.324-8.46 0.216-11.771 0.396-3.42 1.404-6.048 2.88-8.568 1.44-2.592 3.348-5.184 5.868-6.948 2.412-1.836 5.184-3.168 8.712-3.995 3.42-0.864 8.244-1.297 12.132-1.44 3.744-0.36 6.624-0.144 11.125-0.18 4.5-0.108 9.79-0.145 16.02-0.252 0.83-0.795 1.65-1.587 2.52-2.415z" fill="#fff"/>
	<path id="path13" d="m57.697 79.703c0.54-3.456 1.8-6.408 3.924-8.855 2.124-2.521 4.968-4.393 8.676-5.904-4.428 0.972-7.704 2.52-9.972 4.644-2.34 1.98-2.916 5.04-3.528 7.776-0.648 2.628-0.468 7.848-0.288 8.316 0.108 0.359 0.504-1.584 1.188-5.977z" fill="#fff"/>
	<path id="path15" d="m58.561 108.76c-0.36-0.11 1.98 2.84 3.708 3.99 1.548 1.12 5.292 2.27 5.796 2.49 0.36 0.03-1.692-1.08-3.24-2.09-1.692-1.26-5.868-4.25-6.264-4.39z" fill="#fff"/>
	<path id="path17" d="m68.173 121.21c1.188 0.9 3.816 1.8 8.172 2.41 4.356 0.58 10.476 1.01 17.532 1.44 6.873 0.4 17.353 0.65 23.943 0.9 6.55 0.15 11.52 0.15 15.19 0l-5.15-1.44c-13.14-0.5-24.44-1.08-34.451-1.58-10.116-0.61-18.252-1.19-25.236-1.73z" fill="#fff"/>
	<path id="path19" d="m107.81 100.04c0.72 3.71 1.91 6.92 3.56 10.01 1.69 3.1 3.64 5.73 6.12 8.03 2.34 2.2 4.93 3.82 7.78 5 2.7 1.16 5.43 1.88 8.35 2.02l1.12 1.91 13.03 0.21 1.26-1.08c10.8 0.08 20.73 0.08 30.35 0.15 9.43-0.04 16.95-0.04 26.74 0 9.94-0.11 22.4-0.25 31.83-0.29 9.11-0.04 16.09 0.04 23.29 0.07 7.16-0.14 15.01-0.03 19.66-0.5 4.53-0.54 7.09-1.44 7.66-2.7 2.09 0 4.18-0.58 6.81-1.59 2.48-1.18 5.43-2.26 8.28-4.64 2.77-2.48 6.12-5.54 8.39-9.32 2.08-3.78 4.53-12.317 4.71-13.108 0.15-0.792-1.87 5.04-3.53 8.168-1.72 3.06-3.45 7.02-6.44 9.94-3.1 2.77-6.66 4.97-11.66 6.59-5.11 1.51-6.73 1.87-18.33 2.45-11.8 0.39-36.61 0.36-51.08 0.57-14.47 0.15-22.14 0.33-35.06 0.54-13.04 0.07-26.86 0.25-42.3 0.25l-1.3-1.04-13.25 0.22-1.04 0.64c-2.88 0.18-5.76-0.64-9.04-2.62-3.27-2.02-7.81-5.98-10.4-9.26-2.67-3.34-4.5-6.84-5.51-10.62z" fill="#fff"/>
	<path id="path21" d="m128.8 116.6c-1.08-0.25-4.04-0.97-5.8-2.01-1.87-1.15-4.32-3.71-4.57-4.21-0.18-0.51 1.37 0.57 3.24 1.44 1.69 0.79 5.87 2.66 7.13 3.52 1.11 0.9 0.93 1.19 0 1.26z" fill="#fff"/>
	<path id="path23" d="m121.38 107.53c0.58 1.66 1.84 3.13 3.92 4.43 2.06 1.3 4.68 2.2 8.18 3.1l14.54-0.26c0.79 0.18 1.55 0.36 2.12 0.4 0.58 0.04 1.01 0.04 1.3 0 7.56 0.07 17.6 0 30.56-0.07 13.07-0.18 31.97-0.4 46.59-0.51 14.44-0.18 28.98 0.04 39.31-0.18 10.08-0.21 16.02-0.07 21.56-1.22 5.48-1.33 8.57-3.13 11.67-6.37 3.09-3.39 5.25-8.534 6.62-13.358 1.15-4.932 0.61-14.076 0.61-15.192-0.03-1.079-0.18 5.616-0.72 9-0.68 3.421-1.29 7.597-2.8 11.16-1.59 3.46-4.07 7.13-6.48 9.5-2.52 2.24-5.3 3.06-8.46 4-3.21 0.86-4.25 0.65-10.48 1.01-6.44 0.21-16.49 0.36-27.36 0.43-11.02 0-20.48-0.36-37.84-0.25-17.49 0.07-39.13 0.07-66.02 0.39l-1.51-1.04-10.91-0.07-2.95 1.11c-2.92-0.5-5.33-1.29-7.09-2.23-1.84-1-3.03-2.27-3.71-3.78h-0.65z" fill="#fff"/>
	<path id="path25" d="m153.38 116.24c2.96-0.1 12.75 0.15 22.86 0.08 10.08-0.26 25.85-0.87 36.76-1.01 10.66-0.18 17.96-0.04 27.36 0 9.36-0.15 21.31-0.18 28.62-0.25 7.16-0.15 9.94 0.5 14.54 0 4.58-0.62 10.88-3.03 12.78-3.21 1.7-0.32 0.47 1.08-2.12 1.73-2.63 0.68-6.34 1.58-13.21 2.16-6.99 0.4-16.42 0.47-28.01 0.65-11.77 0.18-25.63 0.32-41.44 0.43-15.87 0.11-42.8 0.22-52.59 0.18-9.76-0.22-8.46-0.65-5.55-0.76z" fill="#fff"/>
	<path id="path27" d="m150.65 118.62c8.17-0.22 33.84 0.04 49.35 0.07 15.41-0.07 30.03-0.21 42.74-0.43 12.67-0.36 24.73-1.05 32.68-1.37 7.74-0.39 9.58 0.18 13.68-0.65 4.04-0.9 7.31-2.52 10.41-4.46 2.99-1.94 5.58-3.71 7.77-7.38 2.02-3.92 4.04-9.577 4.68-15.445 0.54-5.976-0.97-17.244-0.93-19.656 0.03-2.411 0.93 1.656 1.33 5.112 0.32 3.349 1.15 9.72 0.68 14.94-0.54 5.076-0.79 10.939-3.81 15.659-3.2 4.61-5.98 9.18-14.58 11.77-8.6 2.34-20.2 2.2-36.72 2.92-16.81 0.72-44.93 1.08-62.82 1.22-18.04 0.04-36.25-0.47-43.81-0.82-7.53-0.51-8.72-1.23-0.65-1.48z" fill="#fff"/>
	<path id="path29" d="m112.85 81.396c0.57-2.088 2.16-6.517 3.92-9.252 1.59-2.736 3.31-4.933 6.3-6.732 2.95-1.944 10.05-3.564 11.7-4.032 1.55-0.36-0.18 0.54-2.12 1.728-2.09 1.081-7.24 2.808-9.76 4.644-2.52 1.62-3.67 2.736-5.25 5.437-1.66 2.628-3.82 8.855-4.54 10.332-0.86 1.331-0.9-0.253-0.25-2.125z" fill="#fff"/>
	<path id="path31" d="m117.38 96.911c-0.5-1.728-0.61-3.815-0.32-6.408 0.11-2.664 0.86-6.336 1.98-9.216 1.19-3.06 3.53-6.516 5.22-8.424 1.62-1.908 3.17-2.376 4.64-3.06 1.41-0.828 2.16-1.368 3.82-1.765 1.55-0.576 3.35-0.828 5.54-1.151l1.98 1.655 10.44-0.144 1.26-1.296c3.24-0.072 10.3-0.181 21.17-0.324 10.98-0.216 30.49-0.504 43.81-0.72 13.29-0.36 24.74-0.828 35.03-0.973 10.12-0.18 20.05-0.036 25.24 0.036 5 0.036 3.09-0.144 4.68 0.145 1.51 0.107 2.52 0.216 4.28 1.008 1.69 0.828 3.85 2.34 5.65 3.96 1.62 1.548 3.6 4.716 4.14 5.076 0.33 0.18-0.18-2.34-1.36-3.816-1.26-1.62-2.96-3.888-5.62-5.256-2.7-1.44-3.92-2.34-10.33-2.844-6.63-0.504-14.15-0.18-28.41 0-14.39 0-39.88 0.504-56.62 0.684-16.78 0.145-30.82 0.504-42.95 0.685l-1.3-0.612-10.69 0.144-1.69 1.116c-1.84-0.216-3.96 0.288-6.37 1.368-2.56 0.972-6.01 2.7-8.28 5.04-2.34 2.412-4.07 5.112-5.19 9.072-1.22 3.852-1.72 9.863-1.51 13.716 0.25 3.672 2.77 8.033 3.13 8.493 0.22 0.36-0.11-1.65-1.37-6.189z" fill="#fff"/>
	<path id="path33" d="m150.54 57.923c7.92-0.324 27.94-0.72 43.38-0.9 15.37-0.252 35.17-0.432 48.28-0.54 12.85-0.144 22.03-0.36 29.05-0.252 6.87-0.036 9.14-0.252 12.63 0.468 3.42 0.684 7.03 3.312 7.74 3.708 0.44 0.288-2.16-1.188-4.28-1.656-2.09-0.468-2.74-1.332-8.35-1.332-5.83-0.144-15.45 0.432-26.07 0.612-10.65 0.036-22.42-0.144-37.4 0.144-15.26 0.252-40.93 1.296-52.56 1.476-11.59 0.036-14.15-0.756-16.27-1.008-2.13-0.36-4.03-0.504 3.85-0.72z" fill="#fff"/>
	<path id="path35" d="m151.01 61.127c10.33-0.072 41.61-0.288 59.4-0.504 17.57-0.432 34.63-1.08 45.5-1.368 10.66-0.324 13.43-0.216 18.61-0.072 5.12 0.108 8.79 0.144 11.99 1.08 2.95 0.828 4.72 2.34 6.7 3.961 1.98 1.512 3.78 2.664 5.4 5.256 1.58 2.483 3.31 6.624 4.21 9.792 0.72 3.06 0.86 4.68 0.58 8.748-0.44 4.031-2.06 13.82-2.34 15.19-0.26 1.08 0.46-4.03 0.75-7.703 0.22-3.779 0.76-9.756 0.22-13.896-0.79-4.068-2.09-7.344-4.47-10.404-2.41-3.204-5.32-6.695-9.72-8.388-4.6-1.728-5.97-1.8-17.13-1.872-11.23-0.144-31.43 0.396-49.36 0.792-18.14 0.252-45.65 0.612-57.92 0.684-12.17-0.108-12.46-0.36-14.76-0.612-2.34-0.252 0.39-0.612 0.86-0.648 0.33-0.072-8.71-0.036 1.48-0.036z" fill="#fff"/>
	<path id="path37" d="m162.53 47.015c2.63-0.144 12.17-0.396 29.05-0.9 16.99-0.504 40.39-1.116 71.57-1.98l2.12-1.116 11.99-0.396 1.51 1.044c4.25-0.036 8.25 0.54 11.99 1.728 3.74 1.224 7.74 3.528 10.33 5.4 2.49 1.656 4.61 4.968 4.57 5.076-0.25-0.072-3.2-3.24-5.4-4.644-2.16-1.404-4.03-2.772-7.56-3.708-3.7-1.044-8.17-1.656-13.93-2.124l-2.12-0.828-11.77 0.396-1.7 1.08c-13.24 0.396-26.49 0.828-40.14 1.296-13.71 0.36-31.32 1.116-41.43 1.296-10.19 0.072-15.84-0.144-19.05-0.36-3.2-0.288-3.16-0.756-0.03-1.26z" fill="#fff"/>
	<path id="path39" d="m217.5 48.923c11.88-0.18 21.49-0.54 29.27-0.684 7.74-0.18 13.1-0.54 16.67-0.684l1.69-1.116 11.55 0.036 1.27 0.648c5.43 0.108 9.68 0.648 13.28 1.476 3.35 0.72 5.4 2.124 7.56 3.528 2.16 1.332 3.71 2.736 5.62 5.04 1.8 2.268 4.89 7.884 5.25 8.677 0.22 0.611-1.37-2.341-3.49-4.429-2.2-2.232-5.87-6.264-9.07-8.208-3.42-2.052-7.06-2.88-10.33-3.456-3.21-0.612-6.09-0.756-8.79-0.288l-1.26 1.512-11.52 0.18-1.73-0.612c-5.07 0.216-12.42 0.54-22.43 0.576-10.11-0.036-28.18 0.036-37.4-0.072-9.32-0.072-17.64-0.144-17.75-0.36-0.07-0.324 11.95-0.828 17.32-1.116 5.29-0.288 10.01-0.504 14.29-0.648z" fill="#fff"/>
	<path id="path41" d="m306.74 82.764c0.9-2.232 1.05-5.076 0.29-8.532-0.75-3.601-2.45-9.108-4.68-12.349-2.27-3.312-4.86-5.292-8.89-6.912-4.14-1.728-9.14-2.736-15.44-3.168l-1.48 0.684-11.34-0.252-2.12-0.612c-22.18 0.432-43.28 0.792-64.55 1.224-21.31 0.36-50.29 0.684-61.96 0.972-11.48 0.18-7.63-0.036-7.05 0.324 0.36 0.252 2.12 0.972 9.86 1.332 7.85 0.18 24.01 0.324 36.54 0.288 12.38-0.216 22.39-0.36 37.4-0.576 14.94-0.144 31.79-0.324 51.52-0.396 3.67-0.18 7.42-0.216 11.09 0.036 3.74 0.144 7.67 0.288 10.94 1.116 3.06 0.72 5.29 1.44 7.96 3.708 2.66 2.232 5.97 6.625 7.85 9.72 1.69 2.988 2.19 5.725 2.91 8.064 0.65 2.232 1.08 3.961 1.15 5.329z" fill="#fff"/>
	<path id="path43" d="m32.677 52.019c-3.24-0.648-6.408-0.972-9.648-1.116-3.348-0.108-6.48-0.036-9.828 0.36-0.252 0.648-0.18 1.404-0.18 2.124-0.036 0.72 0.252 1.512 0.468 2.376 5.148 0.432 9.108 0.36 12.42-0.216 3.168-0.612 5.472-1.836 6.768-3.528z" fill="#fff"/>
	<path id="path45" d="m11.941 50.651c-0.252 1.008-0.36 2.124-0.18 3.204 0.108 1.08 0.36 2.268 0.9 3.42-1.512-0.972-2.52-1.98-3.024-3.168-0.576-1.368-0.504-3.168-0.072-3.852 0.324-0.54 1.116-0.504 2.376 0.396z" fill="#fff"/>
	<path id="path47" d="m7.801 46.439c0.108 0.072-1.476 1.584-1.44 3.852-0.072 2.232 1.476 8.46 1.44 9.396-0.216 0.756-1.584-3.024-2.016-4.68-0.396-1.728-0.936-3.96-0.504-5.328 0.324-1.584 2.268-3.312 2.52-3.24z" fill="#fff"/>
	<path id="path49" d="m16.153 47.375c1.044 0.288 6.084 0.792 9 1.368 2.844 0.468 7.38 2.052 7.92 1.98 0.432-0.144-2.808-2.052-5.148-2.664-2.484-0.72-7.056-1.008-9-1.152-1.98-0.144-3.924 0.144-2.772 0.468z" fill="#fff"/>
	<path id="path51" d="m36.529 51.767c1.332-0.144 6.66 0 7.92 0.288 1.116 0.144 0.72 0.612-0.648 0.864-1.44 0.072-6.552 0.252-7.704 0.108-1.296-0.288-0.972-1.08 0.432-1.26z" fill="#fff"/>
	<path id="path53" d="m73.069 51.407c8.784-0.432 35.711-0.576 50.221-0.576 14.36 0 34.95 0.216 35.67 0.504 0.44 0.144-17.02 0.216-31.82 0.504-14.9 0.144-47.051 0.936-56.195 0.864-9.036-0.18-6.66-0.936 2.124-1.296z" fill="#fff"/>
	<path id="path55" d="m287.52 43.127c7.09-0.324 13.79-0.792 20.48-1.404 6.59-0.648 12.68-1.296 19.23-2.232 6.52-1.08 14.11-2.268 19.58-3.708 5.26-1.44 8.25-2.844 12.32-4.896 3.99-2.232 8.96-5.112 11.84-8.1 2.7-3.132 3.38-7.344 4.97-10.116 1.44-2.952 2.56-5.184 4.18-6.696 1.62-1.584 3.56-3.348 5.54-2.232 1.84 1.188 3.92 5.292 5.69 9.108 1.62 3.528 3.38 7.452 4.46 12.744 1.01 5.4 1.51 11.844 1.8 19.188 0.25 7.128 0.65 15.372-0.47 23.76-1.33 8.353-4.5 20.593-6.87 25.74-2.49 4.932-4.93 4.932-7.2 4.176-2.34-0.936-4.36-6.408-6.34-9.071-1.98-2.7-1.37-4.032-5.36-6.912-4.18-2.916-13-8.316-19.08-10.656-6.16-2.556-11.41-3.024-17.57-4.032-6.26-1.044-12.78-1.548-19.69-1.8-0.18-1.116-0.76-2.305-1.33-3.42-0.62-1.224-1.62-2.376-2.63-3.6 5.33-0.504 12.38-0.324 21.6 0.54 9.21 0.9 24.77 3.564 33.19 4.392 8.21 0.648 12.35 1.836 16.45-0.468 4-2.448 7.02-8.28 7.71-13.608 0.54-5.436-1.62-14.904-3.71-18.54-2.02-3.708-2.92-4.248-8.39-3.276-5.69 0.9-16.42 6.66-25.09 8.964-8.82 2.16-16.99 2.88-26.86 4.248-9.93 1.332-20.37 2.52-32 3.708-1.55-0.468-2.85-1.008-3.89-1.224-1.16-0.253-1.88-0.577-2.56-0.577z" fill="#fff"/>
	<path id="path57" d="m298.03 45.719c14.51-0.504 27.18-1.368 38.85-2.736 11.52-1.404 25.77-5.148 30.27-5.4 4.25-0.324 1.62 1.836-3.99 3.276-5.8 1.296-19.05 3.564-29.45 4.716-10.44 1.08-21.06 1.8-32.44 2.016-1.08-0.612-2.16-1.224-3.24-1.872z" fill="#fff"/>
	<path id="path59" d="m304.73 51.191c0.86 0.72 1.69 1.764 2.63 2.736 0.86 0.972 1.8 2.088 2.81 3.348-0.76-1.296-0.04-2.304 2.3-3.024 2.2-0.828 4.32-1.26 11.52-1.44 7.27-0.252 21.56 0.36 31.65 0.324 9.93-0.108 23.43-0.216 27.57-0.612 3.89-0.54 1.77-1.692-3.45-2.088-5.33-0.504-18.36-0.324-27.58-0.432-9.32-0.216-20.56-0.54-27.58-0.432-7.05 0.036-10.83 0.504-14.11 0.864-3.35 0.216-5.22 0.468-5.76 0.756z" fill="#fff"/>
	<path id="path61" d="m372.23 84.275l2.05 2.34c1.01 2.304 2.23 4.428 3.39 6.372 1.11 1.872 2.44 4.068 3.7 5.184 1.19 1.044 2.7 1.513 4 1.404 1.19-0.18 2.34-0.504 3.6-2.088 1.26-1.62 2.92-4.428 4.14-7.74 1.19-3.6 2.38-9.359 3.17-12.708 0.72-3.384 1.19-7.38 1.26-6.983-0.04 0.288-0.94 7.056-1.19 9.216-0.39 2.052-0.68 3.672-0.43 3.492 0.32-0.288 1.04-1.872 2.3-4.896-0.21 1.98-0.68 4.212-1.4 6.984-0.72 2.699-1.84 6.479-2.95 9.252-1.23 2.735-2.63 5.436-4.21 7.126-1.66 1.59-3.64 2.27-5.4 2.2-1.88-0.18-4.04-1.48-5.51-3.06-1.59-1.694-2.85-3.963-3.93-6.663-1.12-2.735-1.98-5.832-2.59-9.432z" fill="#fff"/>
	<path id="path63" d="m398.62 39.275c-0.15 1.152-0.4 3.384-0.33 6.264-0.07 2.808 0.18 7.02 0.36 10.404 0.15 3.276 0.22 9.361 0.51 9.361 0.25-0.217 0.57-6.229 0.82-9.865 0.11-3.744-0.07-8.928-0.14-11.808-0.29-2.808-0.54-4.5-0.76-5.076-0.18-0.684-0.43-0.576-0.46 0.72z" fill="#fff"/>
	<path id="path65" d="m372.16 19.079l1.72-2.484c0.76-2.592 1.55-4.932 2.67-6.876 1.04-2.052 2.3-3.996 3.63-5.148 1.3-1.26 2.53-1.908 3.82-1.944 1.12-0.036 2.05 0.432 3.1 1.548 0.97 0.972 1.54 1.8 2.98 4.572 1.37 2.772 4.76 11.16 5.3 11.988 0.43 0.576-2.02-5.724-2.49-7.92-0.54-2.232-0.9-3.924-0.93-5.22-1.19-1.872-2.27-3.348-3.64-4.428-1.37-1.188-2.95-1.836-4.21-2.232-1.23-0.36-2.41-0.612-3.42 0.072-1.3 0.576-2.56 1.872-3.64 3.744-1.11 1.764-2.19 4.644-2.95 7.092-0.83 2.448-1.48 4.68-1.94 7.236z" fill="#fff"/>
</g>
<metadata><rdf:RDF><cc:Work><dc:format>image/svg+xml</dc:format><dc:type rdf:resource="http://purl.org/dc/dcmitype/StillImage"/><cc:license rdf:resource="http://creativecommons.org/licenses/publicdomain/"/><dc:publisher><cc:Agent rdf:about="http://openclipart.org/"><dc:title>Openclipart</dc:title></cc:Agent></dc:publisher></cc:Work><cc:License rdf:about="http://creativecommons.org/licenses/publicdomain/"><cc:permits rdf:resource="http://creativecommons.org/ns#Reproduction"/><cc:permits rdf:resource="http://creativecommons.org/ns#Distribution"/><cc:permits rdf:resource="http://creativecommons.org/ns#DerivativeWorks"/></cc:License></rdf:RDF></metadata></svg>
