<?xml version="1.0"?>
<svg xmlns:rdf="http://www.w3.org/1999/02/22-rdf-syntax-ns#" xmlns="http://www.w3.org/2000/svg" xmlns:cc="http://web.resource.org/cc/" xmlns:xlink="http://www.w3.org/1999/xlink" xmlns:dc="http://purl.org/dc/elements/1.1/" xmlns:svg="http://www.w3.org/2000/svg" id="Layer_1" xml:space="preserve" viewBox="0 0 232.926 170.488" version="1.1" x="0px" y="0px" enable-background="new 0 0 232.926 170.488">
	<path clip-rule="evenodd" d="m176.45 48.309c1.583 0.83 3.69 0.359 6.981 0.583 12.665 32.048-17.477 53.964-36.654 67.491-3.492 6.008-8.715 10.288-9.891 18.617 0.298 2.416 3.295 2.135 3.491 4.654 0.192 2.518-0.802 3.852-2.327 4.654 2.889 5.359-3.752 9.303-8.146 11.055 2.325 2.715 3.228 6.859 2.91 12.217-2.744 0.715-6.087-1.717-8.145-3.49-3.004 1.65-4.317 4.992-7.562 6.398-1.638-0.107-2.48-1.01-2.329-2.908-2.63 0.457-5.844 2.836-8.145 1.746-0.328-2.656 1.031-3.625 0.582-6.4-2.562-2.285-6.462-3.234-8.727-5.818-0.277-4.736-0.035-8.957 2.327-11.055-0.807-1.52-4.937 0.283-5.818-1.162-2.538-3.449 0.909-6.496 2.909-8.729-1.035-11.141-7.203-18.803-14.545-24.434-5.962-4.576-12.47-7.139-18.618-12.219-5.937-4.908-13.259-12.369-15.126-20.947-1.796-8.248-1.436-17.879 1.164-26.181-0.382-1.742-1.244 0.556-2.327 0 0.379-2.53 3.142-2.676 4.073-4.654 2.797 1.334 5.051 0.536 8.146-0.583 0.964-2.914-3.6-2.046-1.746-4.072 2.371-0.234 2.693 1.578 4.088 2.316 2.282-0.82 2.185-4.021 3.49-5.818-1.92-2.694-3.203-5.11-6.4-4.655-3.169 0.452-2.427 4.045-5.236 5.236 1.687 1.188 1.173 3.858 0 5.237-4.262 0.771-4.906-2.076-5.236-5.237 3.354-1.301 7.006-2.302 6.981-6.981-3.911-2.451-9.415-0.805-11.055 2.327-0.192 2.519 3.222 1.433 2.91 4.073-1.778 0.42-2.12-0.595-3.491-0.583-3.677 3.518-0.261 8.782 1.745 11.636-5.802 0.418-15.282-3.595-16.29-11.635-1.869 1.356 1.793 6.024 1.745 9.309 1.444 1.619 5.232 2.924 9.31 3.491 0.421 7.483 5.554 17.582-0.583 20.364-2.907-2.286-0.141-8.375-4.654-9.891-0.587-3.495 0.854-4.964 1.164-7.563-2.359-1.63-3.308-0.581-7.564-1.164-4.86-4.448-7.267-11.351-6.981-20.945-2.452-0.124-2.05 2.605-3.491 3.491-3.763-1.473-1.631-8.841-5.818-9.89 0.254-2-0.23-3.261-0.583-4.655 0.977-1.933 2.436-3.382 2.91-5.818-2.822 0.902-3.916 4.389-9.891 2.91-2.512-0.623-5.504-3.961-5.818-5.237-0.54-2.192 0.156-7.167 3.491-9.309 5.561-3.571 13.1 1.356 20.363 0.581 3.498-0.373 7.507-3.901 11.636-3.49 3.36 0.335 6.057 3.461 8.146 5.236 0.014 9.7-6.588 16.379-13.964 15.126-0.574 4.842 2.486 6.049 5.237 7.564 4.834-1.641 8.958-0.355 12.799 1.746 2.822-1.12 9.615-1.691 10.474 2.327 6.574 1.055 11.555-0.299 17.453 0.582 1.976-2.91 2.692-11.166 0.583-14.545-5.915 0.022-8.382 0.2-13.964 0-2.023 1.856-4.261 3.496-5.818 5.819-7.056 1.283-5.188-10.875-1.745-12.218 3.523 0.161 4.527 2.842 6.981 4.072 5.927-0.189 8.205 0.962 13.963 0 0.12-2.447-2.21-2.443-2.327-4.654-3.11 3.928-11.4 3.945-12.799-0.581-2.324-7.516 5.909-12.389 15.126-10.475 7.706 1.6 13.243 10.133 16.292 15.708 19.031-0.268 37.054 0.559 50.617-1.164 3.308-3.232 6.401-10.391 12.801-13.382 3.958-1.85 10.818-2.882 13.963-0.581 4.34 3.174 2.282 11.947-4.654 12.218-2.673-0.445-5.426-3.466-5.819 1.164 5.829 2.217 12.093 0.983 16.292-2.91 4.539 0.554 3.899 11.607-0.582 11.637-2.272 0.139-2.104-2.161-2.909-3.492-1.511 0.349-2.093-0.233-1.745-1.745-3.946 0.319-9.216-0.683-12.218 0.581-2.302 3.33-1.009 10.901 0 14.545 2.457-1.907 5.651-5.849 10.474-3.491 2.438-2.02 5.31-3.609 9.889-3.491 2.565-2.281 10.231-4.688 13.382-1.164 1.622-1.868 4.657-2.326 5.819-4.654-1.43-0.309-6.548 0.439-9.891-1.164-6.312-15.785 11.453-23.566 22.688-15.709 2.064 0.207 2.844-1.674 4.654-1.746 1.146-0.045 2.031 1.331 2.91 1.164 3.105-0.587 4.763-3.269 7.563-3.491 4.619-0.367 7.999 4.737 7.563 9.31-0.584 6.125-7.819 9.227-13.383 10.472-0.128 1.874 1.03 2.462 0.583 4.654-1.579 1.717-2.633 3.959-5.237 4.654 0.777 10.859-6.463 13.706-8.726 21.526-2.413 0.158-2.269-0.763-4.072 0 0.696 1.937 0.635 8.323-1.747 10.474-3.812 0.648-6.423 2.498-8.727 4.654-3.321-5.028 3.062-7.411 5.819-9.891-5.306-5.893 0.921-11.566 5.234-14.545 0.108-3.211-1.564-4.64-2.907-6.4 1.873-5.69 9.022-6.104 8.144-14.545-2.814 0.49-6.87 4.761-10.471 6.4 0.279 4.158-1.671 6.087-2.329 9.309-6.051 1.51-5.109 10.016-11.054 11.637-2.387 0.008-0.81-2.061-2.327-2.327-1.39-0.248-2.37 3.451-5.21 2.911zm11.64-31.418c6.889 4.654 17.161-0.056 19.781-5.235-6.846 1.822-9.796 4.083-17.454 5.235-0.928-7.147 5.371-11.022 11.056-13.381-8.13-2.859-13.55 4.391-13.39 13.381zm-158.25-11.636c4.508 0.08 9.794-0.698 10.474 4.073 0.56 3.931-4.768 7.294-8.146 9.309-3.306-0.97-5.02-6.604-7.562-6.4 0.871 1.262 0.991 3.275 1.164 5.237 3.549 0.523 4.712 3.433 9.89 2.327 2.083-4.123 6.062-6.352 6.4-12.218-2.512-3.47-9.205-7.069-12.22-2.328zm121.59 2.328c-7.322 6.668-10.921 25.362-6.981 37.818 2.881 9.103 10.868 15.033 12.8 21.526 3.812 12.81-5.89 27.8-18.034 25.018-5.793-1.325-6.925-9.148-2.329-12.219-2.367 0.616-2.756-0.163-5.817 0-1.683 0.702-2.651-3.488-2.909-0.581-0.291 4.904 0.18 11.591 0 18.037 5.504 0.71 5.71 11.508 4.072 15.708-0.914 2.346-2.934 2.891-3.49 4.072-0.77 1.884 0.959 7.34-0.582 9.891 1.863 0.078 2.559 1.318 2.327 3.492-0.831 2.092-4.339 3.051-5.237 0.582 2.363-3.023 2.152-5.756 0.583-9.891-0.412-0.55-2.729 0.373-3.492-1.166 2.924-8.365-0.462-19.602 1.165-27.346 1.418-0.518 2.992 2.596 2.909 0v-11.053c-1.247-1.469-3.612-1.818-4.654-3.491-0.735 8.285 1.118 14.963 0 20.364-0.722 3.486-0.333 2.215 0 5.818 0.62 6.709 0.116 13.307 0 22.109 0.37 2.168 3.06 2.367 1.745 4.654-0.479 1.846-4.311 2.447-5.236 0.58-0.434-3.729 3.238-3.355 2.326-7.564-0.295-1.643-3.3-0.578-3.488-2.326-0.829-7.912 0.363-19.792-0.583-29.672 0.743-0.807 2.746-0.357 3.489-1.164 0.149-3.343-0.436-7.417 0.582-9.891-1.347-1.56-5.021-0.795-5.817-2.908 0.429 5.488-0.156 9.358 0 15.709-0.009 0.961-1.613 0.324-1.745 1.162 1.994 0.599 1.677 3.994 1.745 6.4 0.226 7.811-0.457 16.457 0 25.02-0.111 2.438 2.856 1.797 2.329 4.654-1.582 2.028-5.611 2.391-6.401-0.582 1.667-2.299 3.534-3.783 2.327-7.564-2.193-0.909-3.745-2.462-4.655-4.654-1.938 4.839 0.732 10.568 1.165 12.801-0.587 1.352-2.003 1.875-4.073 1.744-0.14-0.83-0.958-0.982-1.164-1.744-0.122-2.521 1.473-3.328 1.745-5.236 0.829-5.793-2.119-8.826-3.49-11.637-0.565-1.16-1.579-2.926-1.745-4.656-0.683-7.126 4.194-10.035 5.235-14.545 1.231-5.317-1.223-9.269 0-15.127-2.247-0.113-4.287-0.02-5.817 0.583 3.45 7.804-1.155 14.789-11.055 12.799-6.627-4.147-10.753-8.053-11.055-17.454-0.503-15.738 17.33-31.651 13.964-50.036-2.155-11.84-9.998-23.579-25.584-22.09-2.16 1.525-4.137 3.232-3.49 7.563 1.723 1.339 6.47 3.159 6.981-0.581 0.498-2.825-3.772-0.882-3.491-3.492 4.671-1.419 8.57 1.805 10.472 4.656 2.7 4.042 4.229 12.15 3.492 17.454-1.756 12.63-13.227 21.753-26.182 22.108-1.941 5.134-3.526 11.009-3.491 16.873 0.162 26.573 27.969 35.149 42.472 48.872 3.495 5.619 6.291 11.938 7.563 19.781 13.377-0.01 21.741 0.412 33.163 0 3.229-24.574 28.476-31.051 41.309-47.707 6.695-8.691 11.312-24.446 6.399-37.237-16.815 0.317-29.755-13.055-27.926-30.254 0.731-6.883 4.38-14.658 12.216-15.709-1.137 2.169-0.364 3.6-1.744 4.656 2.658 1.273 5.69-1.519 4.654-5.819-6.68-3.06-13.73-0.48-17.46 2.913zm-146.03-2.91c-4.063 1.936-4.595 7.938-1.745 9.31 1.44-0.561-0.801-2.235 0-4.073 0.619-3.647 5.845-2.688 7.564-5.237 0.14 1.024 1 1.327 2.327 1.164-0.865-2.774-5.737-2.31-8.146-1.164zm206.54 0.582v2.327c1.501 0.283 3.298-2.057 1.745-2.91-0.32 1.211-0.9 1.234-1.74 0.583zm-194.32 7.564c0.575-2.917 4.213-2.77 3.491-6.983-4.45-2.401-5.545 4.235-3.491 6.983zm175.12 1.164c2.613 1.088 6.061-1.824 9.311-2.91 2.706-0.904 7.741-0.143 7.562-4.073-5.62-3.475-15.69 0.558-16.87 6.983zm31.42 1.745c4.395-0.915 7.384-6.095 6.401-10.472h-1.744c0.96 6.01-3.37 6.716-4.66 10.472zm-5.24-9.309c-1.139 2.625-1.649 5.781 0.58 7.564 3.883-0.966 6.366-3.332 6.984-7.564-2.19-1.625-4.64 0.515-7.56 0zm-186.17 10.472c1.98-2.479 4.498-4.422 5.237-8.145-3.911-1.811-10.854-1.508-13.964-1.164 3.344 2.668 5.582 6.442 8.727 9.309zm-27.927-6.981c0.238 1.895 1.214 3.052 2.327 4.073 3.192-0.493 5.225-2.145 8.145-2.91 0.422-1.779-1.004-1.711-0.581-3.491-4.752-0.678-7.181 0.966-9.891 2.328zm13.963 4.073c1.352-0.201 2.727-0.376 2.327-2.327-1.351 0.199-2.726 0.376-2.327 2.327zm179.2 9.891c2.322 0.576 1.752-1.74 4.074-1.165 1.842-3.591 7.77-6.184 7.562-9.89-3.08 4.477-9.34 5.779-11.63 11.055zm19.2-6.983c2.659-0.057 6.014 0.583 6.401-1.745-3.146 1.148-4.723 0.919-6.981-1.164-0.13-0.452-0.017-1.148-0.582-1.164-0.35 2.089 0.67 2.815 1.16 4.073zm-193.16 6.401c0.234-3.725-1.601-5.381-3.491-6.981-0.555 4.045 2.412 4.568 3.491 6.981zm1.163-4.655c0.51-1.198-1.509-2.613-1.745-1.164 0.83 0.139 0.981 0.958 1.745 1.164zm-6.4 14.545c6.651-4.119-3.729-7.202-0.581-15.127-0.129-0.453-0.488-0.676-1.164-0.581-5.371 5.944 0.816 8.89 1.745 15.708zm192-13.381c0.158-0.792-0.36-2.271-0.583-1.164-0.16 0.792 0.36 2.272 0.58 1.164zm6.98 3.491c-0.535-1.624-1.271-6.065-2.91-4.654 1.86 0.661 0.55 4.49 2.91 4.654zm-102.98-4.074c0.485 16.972-0.663 32.998-0.581 45.963 0.021 3.382-0.73 11.488 3.489 12.218 0.091-1.447-0.913-1.801-1.162-2.909 1.448-0.296 3.511 0.019 3.489-1.746v-1.164c-0.824-1.503-4.77 0.116-4.072-2.908 1.773 0.057 4.072 1.791 4.072-1.746 0.098-1.646-3.586 0.483-3.489-1.163 0.063-1.487 1.948-1.155 3.489-1.164 0.317-3.03-4.697-0.731-4.652-3.49 3.668-0.404 3.585-4.561 5.234-6.981-2.602 0.469-3.23-1.036-3.488-2.91 4.576-1.08 3.129-4.149 2.906-8.145-1.768 0.023-3.828 0.338-3.489-1.746 1.435 0.077 2.803 0.089 3.489-0.581-0.364-7.199 0.746-15.872-0.58-22.109-1.88-0.128-2.47 1.029-4.66 0.581zm6.98 30.837c3.549-1.223 2.909 1.745 4.654 2.327 0.358-3.264-0.606-6.322 0-8.145-0.942-0.997-3.655-0.225-3.491-2.327 5.809-4.485 2.246-16.104 2.909-22.109-1.446 0.09-1.802-0.914-2.909-1.164-2.52 9.588-0.26 20.113-1.16 31.418zm6.98-30.837c-1.458 6.404-0.731 17.365-0.582 23.855 0.025 1.111-0.98 4.196 0.582 4.072 0.798-0.962 2.851-5.67 5.816-6.399-1.427-0.513-3.354-0.524-3.489-2.327 3.911 0.033 4.782-2.976 8.727-2.91-0.761-6.257 1.804-12.07 1.165-16.291-2.81-0.763-6.85-0.394-12.22 0zm85.53 2.91c-0.452-1.294-0.336-3.155-1.747-3.491-0.02 1.768-0.33 3.829 1.75 3.491zm-190.25 15.708c0.202 2.708 1.86 5.83 2.909 8.145 1.085 2.4 2.429 5.818 5.235 6.4-7.281-9.032-0.264-25.376-6.399-33.164 1.268 5.954-2.197 12.58-1.745 18.619zm71.562-1.745c1.278 1.243 4.582 0.46 5.236 2.328-0.783 1.35-1.653 2.612-2.909 3.491 3.765-0.833 5.362 0.454 7.563 0-0.109-8.866 0.541-15.75 0-22.691h-11.637c1.057 5.152 2.053 10.361 1.748 16.872zm11.639-16.29c0.581 7.651 0.705 15.449 0.582 23.272-0.159 10.099-1.949 20.992 1.164 31.417 3.028 0.505 4.127-0.915 4.073-3.491-1.049-1.423-4.202 1.57-4.073-1.746 0.14-1.799 4.788 0.909 4.073-1.745 0.096-1.647-3.586 0.483-3.49-1.165 0.874-2.113-0.205-4.022 1.745-5.818-3.19-2.545-0.241-9.776-2.327-12.218 1.124-1.558 5.689-5.339 2.91-6.981-1.939 0.184 1.751 2.758-1.164 2.327-0.834-0.717-1.103-2-1.164-3.491 1.013-0.537 3.123 0.02 2.908-1.745 0.925-5.975-0.234-12.256 0.582-19.201-1.97 0.161-4.71-0.447-5.81 0.585zm-83.783 9.89c1.264-2.995-0.882-6.086-3.492-6.982-0.537 4.029 2.555 4.428 3.492 6.982zm189.67 3.491c-1.433-4.069-0.685-6.963-3.492-9.891-1.13 4.307 1.07 7.51 3.49 9.891zm-19.2-5.818h1.745c-0.133-1.031 0.587-2.914-1.162-2.327-0.2 0.786-0.84 1.11-0.59 2.327zm20.36 0c1.48-0.071 2.257-0.847 2.327-2.327-1.48 0.071-2.26 0.847-2.33 2.327zm-33.75 0c0.216 3.326 8.731 4.524 9.312 0.582-2.026-0.004-5.532 2.431-6.401 0-0.068-2.396 4.552-0.103 5.236-1.745-2.31-1.262-5.63 0.767-8.15 1.163zm-10.47 3.491c0.861 2.955 4.936 4.408 7.564 2.327 0.582 0.773 0.549 2.165 1.744 2.327-0.506-2.833 1.958-2.696 2.327-4.654-3.04-3.025-7.95-1.988-11.63 0zm18.62 7.564c2.251-2.024 7.341-4.285 5.819-8.146-1.522 1.387-1.586 4.233-4.074 4.654-0.904-2.557 3.951-4.561 1.164-5.236-1.66 1.844-5.12 4.953-2.91 8.728zm-151.85-6.4c2.335 0.185 5.982-0.941 5.235 2.327 2.199 0.065 3.128-1.139 3.491-2.909-2.157-0.261-7.987-3.18-8.726 0.582zm164.65 2.908c2.13 1.167 2.545 4.049 3.489 6.4 1.522-2.089 0.021-5.181-0.58-6.981-0.274-1.772 4.43-3.639 1.745-4.073-1.65 1.451-3.97 2.227-4.65 4.654zm-40.73-0.581c2.277-0.631 3.607-2.21 5.816-2.909-2.14-1.264-5.57 0.421-5.82 2.909zm45.38-0.582c0.366 1.959 1.671 2.984 1.162 5.819 1.908-0.807 2.758-2.674 4.074-4.073-0.914-1.416-1.425-3.23-2.909-4.073-0.51 1.026-1.29 1.801-2.32 2.327zm-175.7-1.164v1.164c1.431 0.905 1.71-1.976 0.582-1.745-0.033 0.355-0.086 0.689-0.582 0.581zm9.892 1.746c-1.833 0.053-4.389-2.161-5.819-0.582 1.27 0.509 4.39 2.158 5.819 0.582zm126.25 6.981c1.918 0.514 2.908-2.849 4.074-1.164 0.06 1.807-1.832 1.661-1.164 4.073 3.444 2.211 10.341 3.539 10.473-0.583 0.06-1.858-6.609-3.884-7.563-4.654-0.421-1.779 1.004-1.711 0.583-3.491-4.21-5.01-9.68 0.706-6.4 5.819zm14.55 1.164c1.413-1.896 3.738-5.942 1.747-9.309-2.6 1.707-5.87 7.542-1.75 9.309zm4.07-5.237c2.341 0.568 2.341-3.477 0-2.909v2.909zm-118.69-1.745c0.166 3.228 4.865-1.485 5.237 1.745-1.194 1.993-3.842-0.496-4.073 1.746 0.072 1.286 2.468 0.248 3.491 0.583 0.078-2.25 2.36-2.295 2.91-4.073-2.861-0.072-4.709-1.109-7.565-0.001zm-35.49 2.327c0.164-1.521-0.212-2.502-1.745-2.327 0.245 1.113 0.211 2.505 1.745 2.327zm10.473 5.237c-0.285-1.837 1.047-2.055 0.581-4.073-1.825-1.292-5.062-4.228-7.564-2.909 1.47 1.269 5.233 2.615 4.073 4.655-0.773 0.085-2.165-1.957-2.327-0.583 1.658 1.058 2.156 3.275 5.237 2.91zm0.581-5.819c0.583-0.001 0.692 0.472 1.164 0.582-0.056-0.914 0.078-2.017-1.164-1.746v1.164zm118.69 1.165c1.622-0.009 4.143-1.655 1.745-2.328-0.23 1.12-2.25 0.46-1.74 2.328zm-25.6 1.745c2.497 0.218 4.071 1.36 6.401 1.746 0.639-2.969-4.134-0.523-3.492-3.491 0.846-0.318 3.007 0.68 2.91-0.583-1.82-1.099-5.03 0.55-5.82 2.328zm-37.813 0c1.76 0.193-3.744-3.463-0.582-1.164 0.452 0.329-0.223 1.076 0.582 1.164zm65.743 0h1.163v-1.164h-1.163v1.164zm-90.762 0c-4.456 1.91 1.867-0.801 0 0zm-4.654 1.163c1.96 1.768 1.764-2.15 0 0zm115.78 1.164c0.01 1.542-0.322 3.426 1.164 3.491 0.448-1.534 5.32-4.052 2.327-5.235-0.44 2.882-1.34 3.002-3.49 1.744zm-18.03 1.746c0.663-1.707 0.344-2.162-1.164-2.91-0.67 1.706-0.35 2.162 1.16 2.91zm30.25 16.29c3.444-0.242 4.593-2.777 5.236-5.818-0.333-1.799-2.447-1.819-2.327-4.073 2.339-3.485 10.106-4.626 9.309-9.309-3.503 3.477-10.459 3.505-10.471 10.472 0.104 1.641 2.766 0.727 2.327 2.91 0.77 3.351-2.63 3.299-4.08 5.818zm-158.83-14.546c1.524-1.696-0.43-3.439-1.746-4.072-0.344 2.097-0.787 3.707 1.746 4.072zm95.411 2.328c0.17 1.965 3.305 0.962 3.491 2.91 0.097 1.262-2.063 0.264-2.909 0.581-1.654 3.534 0.833 6.557 4.654 6.4 1.38-1.976 1.584-5.707-0.582-6.981 2.514-2.073 1.633-3.979 2.329-7.564-4.04-2.314-6.7 1.307-6.98 4.654zm-39.559-3.491c1.861 0.08 4.453-0.573 4.073 1.746-1.821 0.118-4.271-0.393-5.237 0.581 2.109 4.277 7.515-1.265 8.728-3.491-3.552 0.451-6.337-0.617-7.569 1.164zm51.199 6.4c-0.253-3.239-1.177-5.807-2.909-7.564-1.35 2.735-0.28 7.493 2.91 7.564zm-101.23-2.327c0.178-2.699-1.021-4.022-3.491-4.073 0.053 2.468 2.038 3.003 3.491 4.073zm127.41-1.746h1.162v-1.164h-1.162v1.164zm-72.723 4.073c0.912 1.416 3.845 0.81 3.491 3.491-2.425 0.292-2.566-1.7-5.236-1.164-2.365 5.672 2.074 11.369 6.4 6.981 0.128-1.873-1.03-2.461-0.582-4.654 1.818-0.51 3.073-1.582 4.654-2.327-0.716-2.47-0.213-3.133 0-5.818-3.93-1.796-8.458-1.178-8.723 3.491zm30.253 19.782c0.03 1.917 0.104 4.049 1.164 5.818-0.412-0.323 6.57 1.729 7.564-0.583-4.586-0.919-5.59 1.498-7.564-1.745 6.148-1.541 12.219 0.213 16.873-2.327-2.809-4.239-12.595 1.228-16.291-2.91 6.562-1.11 15.424-3.454 19.2 2.327-0.675 3.4-4.588 3.559-4.654 7.564-5.208 0.145-8.522 5.319-5.819 9.892 16.97 4.474 21.813-19.813 11.636-27.927-1.95 1.733-3.966 3.403-7.563 3.49 0.277-2.216-0.246-3.631-1.745-4.073-2.114 1.817-7.081 6.152-10.474 2.91 0.703-0.124 0.357-0.646 0-1.164 0.803-1.333 2.9-1.367 3.492-2.909-1.804-0.766-3.227 1.725-4.072 0 0.917-3.68-0.605-6.333 1.163-9.309-1.529 0.173-0.457-2.257-2.327-1.746 0.04 7.685-0.69 15.144-0.58 22.692zm-38.399-17.455c2.617 0.095 5.173 0.13 5.819-1.746-1.217-0.333-1.661-1.442-3.492-1.164 0.761 2.507-1.65 1.842-2.327 2.91zm21.529 2.91h2.327c-0.271-2.056 0.951-5.606-1.746-5.237-0.3 2.887-0.24 3.104-0.58 5.237zm11.05 12.218c2.728-0.095 3.308-0.121 4.654-0.582-1.356-2.809-0.769-4.467-2.909-5.818 0.675-0.489 1.561-0.767 2.909-0.582-0.123-2.787 0.578-6.396-1.165-7.562-1.867-0.51-1.205 1.508-2.326 1.745-1.963-0.986 1.761-4.048-1.163-4.073-0.42 4.203 0.29 11.016 0.01 16.872zm19.2-15.709c-1.092 1.43-1.059 3.985-1.745 5.818 2.535 1.889 3.31 0.151 6.399 0-0.086-2.528 1.635-3.247 0.582-5.237-2.14 0.188-3.99-1.658-5.24-0.581zm-99.487 11.054c-0.493-3.581-1.687-6.458-1.164-11.053h-1.746c0.37 4.415-2.751 10.959 2.91 11.053zm50.035-4.655c-1.444 0.757-2.414-1.707-2.908 0 1.607 0.72 2.956 1.7 5.235 1.746-0.025-3.078-1.976-4.23-4.072-5.237-0.315 2.061 2.06 1.432 1.745 3.491zm55.272 2.327c0.106-1.641 2.766-0.726 2.327-2.908-0.123-0.654-0.644-0.906-1.163-1.164-0.14 1.273-2.63 3.132-1.17 4.072zm-26.18-0.581c-0.77-0.007-0.529-1.021-1.162-1.164-0.67 1.194 0.91 2.774 1.16 1.164zm-15.71 3.491c0.456-1.246 1.413-3.25 0.582-4.073h-2.909c-0.61 2.347-0.76 4.184 2.33 4.073zm28.51-1.746c1.193-0.94 3.386-0.879 4.072-2.327-1.99-0.209-5.49 1.064-4.07 2.327zm9.89 0h1.745c-0.08-1.083-0.384-1.944-1.162-2.327-0.19 0.787-0.84 1.111-0.59 2.327zm-55.854 1.164c1.417-0.674-0.65-2.74-1.164-1.164 0.769 0.007 0.532 1.02 1.164 1.164zm3.491 1.163c-2.359 1.761-5.436 0.83-8.728 0.583-4.493 11.278 2.428 26.882 11.636 25.599 2.655-0.369 5.49-3.828 5.237-6.4-0.416-4.217-6.925-3.469-5.818-8.727-2.489 0.914-4.391-2.541-4.073-4.072 0.909-4.374 10.369-3.427 14.545-2.91-0.185-1.542 3.26 0.545 2.327-1.745-1.393-1.946-4.941-3.023-6.399-3.492-2.64-0.847-5.765-1.503-8.727-1.745h-1.164c-0.097 1.448 0.907 1.801 1.157 2.909zm20.943 0c1.619 0.933 1.608-2.512 0.581-2.327-0.18 0.787-0.83 1.111-0.58 2.327zm9.89 9.31c-1.315 0.623-2.56 1.32-3.491 2.327 1.443 1.496 2.073-0.394 2.909-1.164 0.507 0.85 0.462 2.252 2.327 1.745 0.014-1.371-1.002-1.713-0.582-3.491h3.491c0.651-1.832 0.052-1.317 0-3.49-1.839 0.91-2.554-0.32-4.654-0.582-0.01 1.551-0.01 3.103-0.01 4.655zm-29.67-1.746c1.264 1.276 12.938 4.152 13.962-0.582-3.34-1.595-12.092-2.734-13.96 0.582zm33.16 2.909v1.164c1.433 0.904 1.712-1.977 0.583-1.746-0.03 0.355-0.08 0.689-0.58 0.582zm-17.45 0.581c0.108 11.565-0.555 24.51 0 35.493 0.066 1.316-1.041 4.573 1.164 5.234 1.247-9.444 0.663-15.777 0.583-23.854 0.743-0.808 2.746-0.354 3.49-1.163v-12.219c-1.768-0.559-4.738 0.084-4.655-2.327 0.765-1.708 4.497 1.865 4.655-1.164-1.3-1.223-2.81 0.616-5.24 0.002zm9.89 25.605c1.458 0.097 1.823-0.896 2.327-1.747h-1.744c0.02 0.8-0.28 1.28-0.59 1.75zm11.05 1.74c0.158-0.793-0.359-2.271-0.582-1.165-0.16 0.79 0.36 2.27 0.58 1.16zm0 4.66c0.158-0.793-0.359-2.271-0.582-1.165-0.16 0.78 0.36 2.26 0.58 1.16zm-20.94 23.27v-2.328c-1.9-0.12-2.3 2.73 0 2.33zm13.38 0c0.007-1.156 1.586-0.738 1.162-2.328h-1.162c-0.354 0.033-0.688 0.088-0.583 0.583 1.82-0.18-1.48 1.68 0.58 1.75zm-8.14 0h1.745v-1.745h-1.745v1.75zm15.12-1.17c-0.744-0.033-0.805-0.746-1.745-0.583-0.91 1.44 1.98 1.71 1.74 0.58zm2.33 8.15c-4.089-0.146-9.363 0.889-12.801 1.166 0.923 1.5 3.575 3.031 6.401 3.49 4.482 0.729 12.41-0.09 13.381-2.326-0.5-2.41-4.41-2.24-6.98-2.33zm-33.745 2.33c2.948 4.406 14.673 2.369 16.291-1.748-5.15 0.87-13.936-1.9-16.295 1.75zm7.565 6.98c0.051 1.889 3.47 0.41 2.909 2.908-3.702 0.795-3.524-2.291-6.399-2.328-0.908 2.004-1.366 4.453-1.164 7.564 1.913 0.025 1.392 2.488 3.491 2.328 2.935 0.197 4.067-3.779 6.4-2.328-0.844 1.484-3.182 1.475-2.328 4.654 2.264 1.014 9.318 2.6 10.472-0.58-0.604-0.986-2.268-3.885-1.162-4.654 2.315 0.398 1.382 4.049 4.071 4.072 3.504-1.551 6.359-7.592 2.91-11.057-3.113-0.592-2.896 2.148-5.819 1.748 2.143 3.473-3.728 1.951-4.071 4.654-1.734-0.205-3.543-0.336-4.072-1.748 0.764-1.803-0.159-1.658 0-4.07 3.061 0.736 3.449-1.205 5.818-1.164 1.199 0.156 0.138 2.576 1.746 2.328 0.877-2.42 4.77-1.822 4.653-5.236-1.832-2.049-4.571-3.189-6.399-5.236-2.08 4.34-9.66 3.16-11.06 8.16zm18.62-1.17c1.543 0.508 3.531-1.42 2.326-1.744-0.17 1.2-2.58 0.14-2.33 1.74zm2.32 1.75c1.758 3.051 4.998-1.252 6.982 0.584-1.343 1.955-5.166 1.428-5.817 4.07 0.452 0.131 0.677 0.488 0.583 1.166 5.123-0.693 8.215-3.422 9.889-7.564-4.04-1.29-9.73-1.92-11.63 1.74zm0.59 8.73v5.818c1.392 0.74 2.143 2.125 4.654 1.746 0.968-3.379 0.017-7.566-2.909-8.729-1.898 2.131 2.66 2.707 0.582 4.654-3.08-0.11-0.1-3.25-2.32-3.49zm-4.08 7.56c-0.012-0.871 2.161-2.381 0.58-2.91-0.17 0.69-2.34 2.2-0.58 2.91zm-5.23-1.16c1.079 1.395-1.235 3.867 1.162 4.654 1.852-1.217 1.644-4.004 1.165-5.236-0.12 0.87-1.41 0.54-2.33 0.59zm-7.57 3.49c3.062 0.732 3.449-1.205 5.818-1.166-0.071-1.479-0.847-2.256-2.327-2.326 0.084 1.635-1.425 1.678-2.908 1.744-0.091-0.684 0.1-1.65-0.583-1.744v3.5z" fill-rule="evenodd"/>
<metadata><rdf:RDF><cc:Work><dc:format>image/svg+xml</dc:format><dc:type rdf:resource="http://purl.org/dc/dcmitype/StillImage"/><cc:license rdf:resource="http://creativecommons.org/licenses/publicdomain/"/><dc:publisher><cc:Agent rdf:about="http://openclipart.org/"><dc:title>Openclipart</dc:title></cc:Agent></dc:publisher><dc:title>lyre and garland</dc:title><dc:date>2007-07-17T16:49:09</dc:date><dc:description>a lyre intertwined with a flower garland from a pre-1920s brochure from the Library of Congress</dc:description><dc:source>http://openclipart.org/detail/4415/lyre-and-garland-by-johnny_automatic</dc:source><dc:creator><cc:Agent><dc:title>johnny_automatic</dc:title></cc:Agent></dc:creator><dc:subject><rdf:Bag><rdf:li>clip art</rdf:li><rdf:li>clipart</rdf:li><rdf:li>externalsource</rdf:li><rdf:li>flower</rdf:li><rdf:li>garland</rdf:li><rdf:li>image</rdf:li><rdf:li>instrument</rdf:li><rdf:li>loc</rdf:li><rdf:li>lyre</rdf:li><rdf:li>media</rdf:li><rdf:li>music</rdf:li><rdf:li>png</rdf:li><rdf:li>public domain</rdf:li><rdf:li>svg</rdf:li></rdf:Bag></dc:subject></cc:Work><cc:License rdf:about="http://creativecommons.org/licenses/publicdomain/"><cc:permits rdf:resource="http://creativecommons.org/ns#Reproduction"/><cc:permits rdf:resource="http://creativecommons.org/ns#Distribution"/><cc:permits rdf:resource="http://creativecommons.org/ns#DerivativeWorks"/></cc:License></rdf:RDF></metadata></svg>
