<?xml version="1.0"?>
<svg xmlns:rdf="http://www.w3.org/1999/02/22-rdf-syntax-ns#" xmlns="http://www.w3.org/2000/svg" xmlns:cc="http://web.resource.org/cc/" xmlns:xlink="http://www.w3.org/1999/xlink" xmlns:dc="http://purl.org/dc/elements/1.1/" xmlns:svg="http://www.w3.org/2000/svg" id="Layer_1" style="enable-background:new 0 0 383.043 378.024" xml:space="preserve" viewBox="0 0 383.043 378.024" version="1.1" y="0px" x="0px">
<path clip-rule="evenodd" d="m167.3 18.076c-0.02 1.857-1.602 2.153-3.379 2.253 0.13-1.746 2-1.757 3.38-2.253z" fill-rule="evenodd"/>
<path clip-rule="evenodd" d="m162.79 18.639c-0.302 1.765-2.101 2.03-3.943 2.253 0.7-1.362 2.31-1.822 3.94-2.253z" fill-rule="evenodd"/>
<path clip-rule="evenodd" d="m223.07 18.639c2.608 0.429-1.312 2.871-2.816 2.816 0.1-1.773 3.03-0.721 2.82-2.816z" fill-rule="evenodd"/>
<path clip-rule="evenodd" d="m227.01 18.639c1.48 0.8-1.187 2.14-2.253 2.253 0.18-1.322 1.74-1.26 2.25-2.253z" fill-rule="evenodd"/>
<path clip-rule="evenodd" d="m135.19 19.202c-0.371 0.757-1.204 1.049-2.253 1.127-0.57-1.694 1.25-0.998 2.25-1.127z" fill-rule="evenodd"/>
<path clip-rule="evenodd" d="m170.12 19.202c-0.444 1.111-1.97 2.026-2.816 1.127 0.08-1.231 1.42-1.209 2.82-1.127z" fill-rule="evenodd"/>
<path clip-rule="evenodd" d="m174.06 19.202c0.171 1.486-1.176 1.453-2.253 1.69-0.17-1.485 1.17-1.453 2.25-1.69z" fill-rule="evenodd"/>
<path clip-rule="evenodd" d="m216.31 19.202c0.612 2.351 2.227 1.399 3.38 0 1.719 1.216-1.653 2.058-2.254 2.817-2.291-1.385-2.721 0.547-5.069 0.564 1.08-1.357 3.01-1.87 3.94-3.381z" fill-rule="evenodd"/>
<path clip-rule="evenodd" d="m197.16 20.329c-0.519 0.984-1.762 1.244-3.38 1.126 0.06-1.438 1.88-1.118 3.38-1.126z" fill-rule="evenodd"/>
<path clip-rule="evenodd" d="m202.22 22.583c2.003-3.592 4.729-0.567 7.323-2.254-1.16 3.136-4.44 1.683-7.32 2.254z" fill-rule="evenodd"/>
<path clip-rule="evenodd" d="m212.93 20.329c-0.3 1.764-2.1 2.03-3.942 2.254 0.92-1.141 1.88-2.248 3.94-2.254z" fill-rule="evenodd"/>
<path clip-rule="evenodd" d="m201.66 20.893c-0.542 1.146-2.162 1.216-3.943 1.126 0.85-0.837 2.47-0.908 3.94-1.126z" fill-rule="evenodd"/>
<path clip-rule="evenodd" d="m192.65 82.856c1.035 0.851 1.665 3.801 0.562 5.069-1.78-0.107-1.31-4.16-0.56-5.069z" fill-rule="evenodd"/>
<path clip-rule="evenodd" d="m189.27 83.418h1.69v3.38c-1.703-1.12-2.583-1.593-2.253 1.69-2.71-1.633-0.94-3.615 0.56-5.07z" fill-rule="evenodd"/>
<path clip-rule="evenodd" d="m194.9 85.108c2.036-0.533 0.786 2.219 1.127 3.38-2.04 0.533-0.79-2.218-1.13-3.38z" fill-rule="evenodd"/>
<path clip-rule="evenodd" d="m197.72 86.799c1.307 0.157 1.296 1.505 0.564 2.252-0.76-0.174-0.47-1.41-0.56-2.252z" fill-rule="evenodd"/>
<path clip-rule="evenodd" d="m186.45 87.925v2.254c-1.84 0.118-2.22-2.643 0-2.254z" fill-rule="evenodd"/>
<path clip-rule="evenodd" d="m201.1 89.051c1.221-0.095 0.255 1.999 0.562 2.816-0.98-0.512-1.45-1.972-0.56-2.816z" fill-rule="evenodd"/>
<path clip-rule="evenodd" d="m182.51 90.179c1.76-0.258 1.801 1.203 1.69 2.815-1.76 0.258-1.8-1.203-1.69-2.815z" fill-rule="evenodd"/>
<path clip-rule="evenodd" d="m192.65 104.82c0.327 2.018-1.667 1.713-3.381 1.69 0.32-1.36 2.13-1.25 3.38-1.69z" fill-rule="evenodd"/>
<path clip-rule="evenodd" d="m194.9 104.82c0.959-0.207 1.063 0.439 1.127 1.126-0.479-0.103-0.532 0.221-0.562 0.564-0.67-0.09-0.48-1.02-0.57-1.69z" fill-rule="evenodd"/>
<path clip-rule="evenodd" d="m242.22 108.77c1.503 0.825-0.237 3.091-1.69 2.817-0.27-1.78 1.51-1.49 1.69-2.82z" fill-rule="evenodd"/>
<path clip-rule="evenodd" d="m246.72 108.77c-0.039 1.517-1.288 2.708-2.254 1.69 0.49-0.83 0.85-1.79 2.25-1.69z" fill-rule="evenodd"/>
<path clip-rule="evenodd" d="m248.42 108.77c1.371 0.354 0.299 2.846-1.127 2.254-0.41-1.54 1.12-1.13 1.13-2.25z" fill-rule="evenodd"/>
<path clip-rule="evenodd" d="m251.23 109.33c1.23 0.38 0.017 2.956-1.688 2.253 0.17-1.14 1.53-1.1 1.69-2.25z" fill-rule="evenodd"/>
<path clip-rule="evenodd" d="m257.99 110.46c-0.637 1.055-0.667 2.713-2.816 2.254 0.11-1.58 0.98-2.4 2.82-2.25z" fill-rule="evenodd"/>
<path clip-rule="evenodd" d="m260.24 111.58c-0.381 1.309-1.871 1.509-2.252 2.816-2.21-0.57 0.21-3.12 2.25-2.82z" fill-rule="evenodd"/>
<path clip-rule="evenodd" d="m133.5 112.15c0.825 0.49 1.786 0.844 1.69 2.253-0.82-0.49-1.78-0.84-1.69-2.25z" fill-rule="evenodd"/>
<path clip-rule="evenodd" d="m136.88 112.15c1.229-0.103 1.792 0.461 1.69 1.69-1.23 0.1-1.79-0.46-1.69-1.69z" fill-rule="evenodd"/>
<path clip-rule="evenodd" d="m269.82 112.15c-0.591 1.474-1.62 2.511-3.379 2.816 0.35-1.72 1.25-2.89 3.38-2.82z" fill-rule="evenodd"/>
<path clip-rule="evenodd" d="m129.56 113.27c0.91-1.76 1.784 1.156 2.817 1.126-0.91 1.76-1.79-1.16-2.82-1.13z" fill-rule="evenodd"/>
<path clip-rule="evenodd" d="m140.82 112.71h1.126v1.126h-1.126v-1.13z" fill-rule="evenodd"/>
<path clip-rule="evenodd" d="m127.87 114.4c0.229-1.402 2.184-0.033 1.69 1.127-0.74-0.2-0.89-0.99-1.69-1.13z" fill-rule="evenodd"/>
<path clip-rule="evenodd" d="m272.07 113.84c-0.18 1.322-1.744 1.26-2.254 2.252-1.48-0.8 1.19-2.14 2.25-2.25z" fill-rule="evenodd"/>
<path clip-rule="evenodd" d="m289.54 114.96c-1.36 1.269-3.238 2.021-5.633 2.253 0.41-2.21 3.4-1.85 5.63-2.25z" fill-rule="evenodd"/>
<path clip-rule="evenodd" d="m87.875 116.09c1.364-1.326 2.891 1.963 4.506 2.254-1.562 1.53-3.089-1.76-4.506-2.25z" fill-rule="evenodd"/>
<path clip-rule="evenodd" d="m293.48 115.53c-0.888 2.099-4.562 3.84-6.76 2.816 1.43-1.77 4.7-1.69 6.76-2.82z" fill-rule="evenodd"/>
<path clip-rule="evenodd" d="m194.34 116.09c1.434 0.057 1.331 2.1 0.562 2.816-1.22 0.09-0.25-2-0.56-2.82z" fill-rule="evenodd"/>
<path clip-rule="evenodd" d="m190.96 117.22c0.229-1.402 2.184-0.033 1.69 1.127-1.25 0.3-0.8-1.08-1.69-1.13z" fill-rule="evenodd"/>
<path clip-rule="evenodd" d="m197.16 116.65c0.99 0.135 1.283 0.969 1.127 2.252-1-0.13-1.29-0.96-1.13-2.25z" fill-rule="evenodd"/>
<path clip-rule="evenodd" d="m188.14 117.22c1.694-0.566 0.998 1.255 1.126 2.254-0.99-0.14-1.29-0.97-1.13-2.25z" fill-rule="evenodd"/>
<path clip-rule="evenodd" d="m185.89 117.78c0.99 0.135 1.283 0.969 1.126 2.252-1-0.13-1.29-0.97-1.13-2.25z" fill-rule="evenodd"/>
<path clip-rule="evenodd" d="m183.07 120.03h1.127v1.127h-1.127v-1.13z" fill-rule="evenodd"/>
<path clip-rule="evenodd" d="m190.96 122.29c0.991 0.135 1.284 0.97 1.126 2.253-1.76 0.26-2.02-1.42-1.13-2.25z" fill-rule="evenodd"/>
<path clip-rule="evenodd" d="m193.21 122.29c1.693-0.568 0.999 1.255 1.127 2.253-0.99-0.14-1.29-0.97-1.13-2.25z" fill-rule="evenodd"/>
<path clip-rule="evenodd" d="m196.59 122.29c0.991 0.135 1.284 0.97 1.126 2.253-1.76 0.26-2.02-1.42-1.13-2.25z" fill-rule="evenodd"/>
<path clip-rule="evenodd" d="m199.41 122.85c1.643-0.828 1.643 2.519 0 1.69v-1.69z" fill-rule="evenodd"/>
<path clip-rule="evenodd" d="m188.14 123.41c0.991 0.135 1.284 0.969 1.126 2.252-0.99-0.13-1.29-0.96-1.13-2.25z" fill-rule="evenodd"/>
<path clip-rule="evenodd" d="m202.22 123.41c1.202-0.264 1.074 0.805 1.127 1.69-0.456-0.106-0.562-0.565-1.127-0.563v-1.13z" fill-rule="evenodd"/>
<path clip-rule="evenodd" d="m286.16 123.41c-1.535 1.28-4.001 2.707-6.197 1.69 1.2-1.43 3.9-1.35 6.2-1.69z" fill-rule="evenodd"/>
<path clip-rule="evenodd" d="m185.32 124.54h1.69v2.254c-0.82-0.49-1.78-0.84-1.69-2.25z" fill-rule="evenodd"/>
<path clip-rule="evenodd" d="m295.17 124.54c-1.335 2.045-4.117 2.643-6.76 3.38 0.92-2.46 4.63-2.12 6.76-3.38z" fill-rule="evenodd"/>
<path clip-rule="evenodd" d="m101.96 125.67c-1.33 1.81-2.28-1.99 0 0z" fill-rule="evenodd"/>
<path clip-rule="evenodd" d="m285.03 125.67c-1.546 1.835-4.413 2.346-7.886 2.254 1.53-1.85 5.42-1.35 7.89-2.25z" fill-rule="evenodd"/>
<path clip-rule="evenodd" d="m183.64 126.23c1.484-0.17 1.848 0.78 1.69 2.252-1.49 0.17-1.85-0.78-1.69-2.25z" fill-rule="evenodd"/>
<path clip-rule="evenodd" d="m284.47 127.92c-2.471 2.119-8.086 3.818-11.83 2.816 2.78-2.1 8.26-1.5 11.83-2.82z" fill-rule="evenodd"/>
<path clip-rule="evenodd" d="m181.95 128.48c0.99 0.137 1.284 0.97 1.126 2.254-1-0.13-1.29-0.96-1.13-2.25z" fill-rule="evenodd"/>
<path clip-rule="evenodd" d="m223.07 132.99c3.783 8.438 8.382 19.014 8.449 29.292-4.031-7.798-7.26-16.4-10.702-24.786 3.127 0.816 2.652 5.234 4.507 7.323 1.4-3.85-2.73-7.03-2.26-11.82z" fill-rule="evenodd"/>
<path clip-rule="evenodd" d="m222.5 157.21c0.599-4.59-4.525-11.184-3.38-16.335 2.286 3.819 3.179 8.855 4.506 13.519 1.771 6.221 4.607 11.409 4.507 18.025-3.944-5.057-5.903-12.828-8.449-19.151-1.15-2.857-3.568-4.965-2.816-7.887 3.2 2.62 3.48 8.17 5.63 11.83z" fill-rule="evenodd"/>
<path clip-rule="evenodd" d="m215.18 147.64c0.654-0.092 1.002 0.124 1.127 0.562 1.595 9.688 5.267 20.248 5.068 29.855-4.751-4.108-4.732-13.523-7.321-20.842-0.97-2.738-3.554-4.631-2.254-7.323 3.969 2.979 3.857 10.038 5.633 15.21 1.41-5.42-3.18-12.55-2.26-17.47z" fill-rule="evenodd"/>
<path clip-rule="evenodd" d="m252.92 18.639c-1.404 6.159 3.896 10.331 3.38 17.463-5.263-2.999-4.61-11.913-9.014-15.773-1.717 2.643 0.67 6.63 1.69 10.139 1.033 3.552 2.678 7.386 1.69 10.703-3.077-1.73-4.289-5.83-5.633-9.576-1.217-3.391-1.35-8.567-5.07-9.576 0.312 7.577 4.337 16.315 6.196 24.222-6.678-5.151-6.532-17.126-12.393-23.095-2.87 1.048-0.398 6.241 0.562 9.576 0.963 3.333 1.721 6.989 2.816 10.14 1.984 5.692 6.584 11.113 5.071 16.899-5.416-7.551-8.705-17.07-11.83-27.039-0.858-2.738-1.456-6.521-3.942-8.449 0.164 5.005 2.688 9.728 3.942 14.646 3.819 14.975 9.12 29.97 12.393 45.627-4.281-2.858-5.659-8.792-7.322-13.52-3.474-9.865-7.996-19.962-10.703-30.981-0.63-2.563-1.44-5.25-2.253-7.887-0.63-2.04-0.179-6.239-3.38-6.759 1.066 8.633 4.541 17.552 6.759 27.038 2.188 9.354 4.388 19.014 7.323 27.603-8.884-11.213-11.474-33.567-17.463-49.007-0.659-1.705-0.398-5.365-3.379-5.07-1.299 7.52 4.032 16.735 5.069 24.785 0.138 1.066-0.661 3.142-0.562 3.379 1.141 2.772 5.107 3.639 5.633 6.197-0.879 2.919-0.383 5.757-1.128 8.449-1.531 5.545-6.093 10.72-7.886 15.772-2.356 6.642-0.184 9.642 2.817 14.645 10.179-2.777 21.827-4.084 32.107-6.759 7.882 2.15 16.387-1.785 24.786-0.564 2.666 0.388 5.107 2.734 7.885 2.817 2.371 0.071 5.793-1.956 9.014-2.253 1.614-0.149 3.091 0.724 4.507 0.562 1.893-0.213 4.089-1.341 6.195-1.689 2.144-0.353 4.116 0.225 6.197 0 2.863-0.31 4.732-1.827 7.322-1.69 1.389 0.073 3.163 1.172 4.507 1.126 4.923-0.167 11.187-4.433 15.209-0.562 4.393-2.654 8.849-1.78 14.645-1.69 2.517 0.038 5.618-1.273 7.888-1.127 1.448 0.093 2.577 1.104 3.942 1.127 7.481 0.121 15.854-1.607 22.532 1.69-1.61 3.059-5.688 3.426-8.45 4.505-8.767 3.429-17.398 8.254-25.912 12.394-6.294 2.355-12.288 4.583-18.587 6.759-6.271 2.165-13.408 3.18-19.153 6.195-2.606 1.37-4.435 3.739-6.76 5.07-2.37 1.358-5.082 2.431-7.887 3.379-5.545 1.875-11.665 4.134-18.025 5.071-7.777 1.145-15.749-0.565-25.348-1.69-2.696-3.499-9.893-2.5-13.519-5.069-5.559 1.013-11.598 1.545-17.463 2.252-1.76 6.629-2.523 10.82-6.76 15.209-1.266 1.312-3.396 3.292-4.507 3.943-1.934 1.134-4.759 0.939-6.759 2.254-2.998 1.967-3.793 5.214-5.07 8.449 3.004 5.498 1.812 14.75 2.254 24.785 0.817 18.61 3.681 39.909 5.069 60.273 1.276 18.714 1.814 36.305 3.942 53.514 1.673-3.319 0.217-7.292 0-10.702-2.645-41.814-6.051-84.944-6.759-130.12 1.296-1.144 1.428-3.453 3.38-3.943 0.783 8.042 2.216 15.435 3.942 22.532 1.11-6.962-2.572-16.914-1.689-23.658 2.79 9.804 4.724 23.423 3.942 34.924-2.439-0.627-2.301-4.17-2.816-6.195-1.563-6.149-2.803-14.491-3.942-21.969-2.236 1.23-1.673 4.22-1.69 6.197-0.061 6.901 1.393 14.05 1.69 20.841 0.749 17.106 0.001 39.228 3.38 58.583 0.875 5.01-0.33 11.024 0 16.336 1.121 18.044 3.224 36.433 2.816 53.513-5.302-15.093-3.856-34.727-6.759-53.513-2.355-15.234-2.327-35.701-3.944-54.077-0.928-10.548-1.813-22.762-2.253-35.487-2.559 22.908-0.005 49.116-1.126 73.791-0.452 9.938-0.436 20.508 0 30.419 0.754 17.163-0.045 33.727-0.564 49.57-0.51 15.592 1.269 31.828-0.562 46.755-0.24 1.952 1.405 5.89-1.689 6.759-0.164-19.601 0.262-40.053-0.564-60.272-0.844-20.646 0.677-41.185-1.126-61.4-1.162-13.03 0.134-31.4-0.563-46.754-0.686-15.093 0.504-29.933-0.562-43.938-4.1 27.012-3.612 55.835-4.507 82.806-0.755 22.729-1.416 45.885-2.253 69.849-2.12-4.09-2.238-16.181-2.254-23.658-0.063-29.249 1.716-62.214 0.564-90.128-0.119-2.859 0.454-6.183 0.562-9.013 0.119-3.097-0.964-6.872 1.69-9.014-0.967 25.246-0.469 53.905-0.562 77.735 2.687-27.753 1.19-60.456 3.943-90.127 0.387-4.175-0.556-9.438 2.817-12.393 2.423 1.221 2.261 7.896 2.252 11.266-0.096 44.117-0.123 91.437 1.127 138.57 2.698-28.795 0.398-65.534 0.563-96.888 0.082-15.606 0.284-34.612 1.126-51.259-4.824-1.185-5.394-6.624-6.759-11.266-3.809-1.073-5.998-3.767-10.703-3.944-2.138-2.368-5.355-3.656-8.449-5.069 1.964 5.437-2.654 12.271-3.38 18.589 4.065-3.257 2.944-11.701 7.323-14.646 0.807 6.506-1.262 14.327-1.127 21.969 0.715-2.954 1.989-6.179 2.816-9.576 0.748-3.072 0.316-7.19 2.816-9.013 0.657 27.345-2.699 55.201-3.942 81.116 4.602-19.724 4.754-47.553 8.449-69.286 0.251-1.478-0.075-4.769 2.254-5.07-0.033 4.319 0.042 8.637 0 12.956-0.041 4.029 0.435 8.179 0 11.266-0.141 0.99-0.122 3.208-1.69 3.38 0.004-4.503-0.207-9.22 0.564-12.957-3.331 11.581-3.943 29.099-5.634 44.5-0.672 6.129-1.386 12.053-2.253 18.026-0.876 6.038-2.24 11.919-2.817 17.461-0.253 2.437 1.485 7.063-1.689 8.45 2.209-35.793 2.735-67.188 6.196-101.39-2.153 3.48-2.727 8.32-3.943 12.956-1.118 4.261-1.402 9.385-4.507 11.829 0.266-10.451 2.452-19.542 3.38-30.417-2.713 2.642-3.626 7.077-5.07 10.702-1.555 3.906-3.059 7.541-5.07 10.704-0.403-9.607 5.333-17.95 6.197-28.165-4.61 7.595-7.411 16.999-12.393 24.222 0.571-9.572 5.8-19.36 7.887-29.292-4.573 6.506-7.492 14.665-11.266 21.969 0.346-10.359 4.759-21.527 9.013-29.855 0.042 5.304-3.862 11.532-5.07 17.461 3.16-3.412 3.415-9.729 7.886-11.829 2.922 2.579 0.068 6.269-1.126 9.576-1.298 3.593-2.479 7.295-3.379 10.704 3.715-2.86 4.813-13.21 9.012-17.463-1.765-2.741-3.579-5.434-4.506-9.013-6.997-0.748-14.155-2.523-20.279-2.252-11.989 0.53-21.021 8.104-32.671 7.323-8.614-0.579-17.448-6.132-24.785-9.577-2.771-1.3-5.995-1.559-8.449-2.816-2.901-1.484-5.752-5.395-9.013-6.195-25.222-6.2-47.85-18.04-71.553-30.991 3.938-2.344 11.07-2.25 16.899-2.254 8.391-0.005 15.58 1.026 25.348 1.69 3.949 0.27 7.497 1.843 11.266 2.254 4.609 0.501 9.184-0.972 12.393 1.688 13.669-1.449 27.74 1.54 37.178 6.197 3.477-3.931 10.146-0.711 12.956-3.38 6.687 1.24 12.248-0.646 18.025 0 1.268 0.142 3.022 1.53 4.506 1.69 1.207 0.13 2.32-0.802 3.38-0.562 1.423 0.319 2.5 1.865 3.943 2.252 2.055 0.553 4.739-0.43 6.759 0 1.229 0.261 2.291 1.934 3.38 2.253 0.929 0.273 2.683-0.293 3.943 0 2.815 0.657 5.492 1.572 9.576 0.564 14.566-13.992-16.154-23.185-11.829-39.431 4.926-0.707 7.323-3.942 10.14-6.759 5.606-1.079 8.52-1.67 13.519-2.817 0.71-8.646-0.408-16.44 0.563-25.349-2.672 1.975-1.492 7.019-2.253 11.266-0.737 4.11-1.666 8.492-3.379 11.266-1.786-1.58-0.098-4.675 0-7.323 0.201-5.423-0.132-11.958 0-16.335-2.25 1.005-1.736 4.375-2.253 6.759-1.208 5.554-1.564 14.588-5.07 19.152-2.657-1.607-0.984-5.454-0.563-8.449 0.849-6.038 1.405-13.1 1.126-18.026-2.765 0.684-2.797 4.432-3.379 6.76-1.838 7.342-3.366 16.327-6.76 22.532-1.358-2.349-0.954-6.691-0.563-9.576 0.992-7.326 4.278-14.958 3.943-20.842-3.229 0.136-2.864 4.42-3.38 6.196-4.458 15.36-10.768 33.42-17.462 47.318 3.326-16.395 9.478-37.833 12.956-54.077-5.189 3.729-5.245 11.348-7.323 17.462-2.061 6.066-5.583 11.387-7.322 16.9-1.924-1.254 0.244-3.605 0.563-5.071 2.057-9.446 4.308-20.955 7.322-29.291-3.218-0.516-4.093 2.952-5.069 5.07-2.05 4.447-4.166 9.626-5.633 14.646-0.749 2.558-0.417 5.84-2.817 7.323 0.595-10.483 3.906-18.25 6.196-27.039-6.926-1.758-7.36 8.864-9.576 12.956-1.581 0.859-2.056 2.826-2.817 4.506-1.536-6.085 4.166-12.679 3.38-18.025-5.136 1.811-4.087 9.808-7.323 13.519-2.516-3.336 1.284-9.42 1.69-13.519-2.536-2.027-8.978-3.121-9.013-7.323-0.04-4.845 10.65-8.985 18.026-10.14 6.665-1.043 15.844-1.168 23.658-2.253 12.652-1.758 26.957-3.153 38.867-2.816 7.391 0.209 17.045 1.121 22.532 1.127 17.362 0.019 39.377-1.252 47.317 7.886 0.11 5.555-4.726 6.166-8.449 7.886 0.229 5.339 3.309 9.776 1.69 15.208-3.8-3.359-2.11-12.177-7.91-13.518zm7.32 8.45c-1.278-3.227-0.482-8.53-3.942-9.576 0.55 3.956 1.3 7.715 3.94 9.576zm-108.71-6.76c1.977 2.223 5.414 0.968 7.886 1.126 10.96 0.702 20.273 2.919 30.418 3.38 19.064 0.866 37.111-2.125 51.823-5.069 6.299-1.261 9.721-3.064 14.083-4.506 3.917-1.295 9.544-1.033 10.14-6.196-17.1-8.19-41.064-6.219-63.653-6.76-3.231-0.077-5.511-0.038-7.886 0-14.918 0.237-30.567 2.817-41.122 3.379-13.053 0.697-27.895 2.007-33.234 9.577 2.971 3.977 8.364 5.531 15.209 5.633 2.697-2.495 5.773-1.349 9.013-2.816-1.508 3.779 2.15-0.355 2.816 1.126-0.177 1.325-2.67 0.335-2.253 2.253 2.66 0.385 3.482-3.999 5.633-2.253-0.177 1.325-2.669 0.335-2.253 2.253 3.35-1.187 6.699-3.537 9.577-2.253-2.01 2.528-3.5-1.012-6.21 1.126zm102.52 10.139c-1.452-3.617-1.559-8.58-4.505-10.702 0.98 4.096 2.01 8.132 4.51 10.702zm-4.51 7.324c-1.081-6.055-3.265-11.007-4.507-16.899h-1.69c1.05 6.652 3.33 12.076 6.2 16.899zm-7.88-1.69c0.126-5.758-3.276-7.99-3.379-13.519h-1.69c1.48 4.714 3.12 9.271 5.07 13.519zm-109.28-5.634c-0.237-2.883 3.274-4.964 1.689-7.322-0.92 1.732-2.85 5.391-1.69 7.322zm8.44 0.564c0.253-2.403 3.895-6.053 1.126-7.886 0.49 3.131-2.47 5.768-1.13 7.886zm9.02-7.323c-3.345 6.232-5.569 16.584-6.196 23.659 3.162-7.353 4.551-16.479 7.886-23.659h-1.69zm-2.82 39.994c3.087-13.819 10.629-26.163 11.829-39.994h-1.689c-3.4 12.934-9.72 25.959-10.14 39.994zm91.82-12.955c-3.056-8.773-5.532-18.125-8.449-27.039h-1.69c2.97 9.422 5.37 19.411 10.14 27.039zm-77.74-7.887c1.751-4.332 4.833-12.047 5.07-18.589-4.39 3.493-2.59 13.179-5.07 18.589zm79.43 36.051c-1.659-9.063-5.763-18.005-8.449-27.038-2.234-7.507-3.356-15.176-5.633-21.406-0.614-1.678-1.02-5.174-3.381-5.633h-1.126c5.15 19.076 10.44 38.005 18.59 54.077zm-70.41-36.051c1.388-5.561 2.905-10.991 3.38-17.462h-1.69c-0.24 5.776-2.59 12.434-1.69 17.462zm8.45-7.886c-0.151-2.797 1.607-6.631 0-9.013-0.32 2.34-1.92 8.032 0 9.013zm44.5 14.083c-1.702-8.248-2.956-16.947-6.759-23.095 1.38 8.566 4.76 15.142 6.76 23.095zm-39.43-1.127c1.266-6.433 0.854-14.543 1.69-21.406h-1.69c-0.72 6.052-1.1 15.419 0 21.406zm3.38-21.406c-0.629 8.97-2.128 19.998-2.254 27.602 1.413-1.657 4.417-3.367 5.07-6.759 0.657-3.412-0.504-8.871-0.564-12.956-0.039-2.737 0.988-6.439-1.126-7.887h-1.13zm4.5 17.462c1.197-4.812-0.109-12.125 1.127-16.898-0.721-0.031-0.781-0.722-1.69-0.563 0.05 3.914-0.53 12.767 0.56 17.461zm10.14 7.324c3.932-0.565 1.386-5.068 1.128-7.323-0.618-5.375-1.532-12.145-2.255-16.898-0.719-0.031-0.779-0.722-1.689-0.563 1.11 8.088 0.77 17.628 2.81 24.784zm0-23.095c1.554 4.442 1.322 10.76 2.254 15.771 0.391 2.107 0.764 5.501 2.816 6.197 0.038-6.801-1.578-16.822-3.38-23.659h-1.69v1.691zm14.65 24.785c-1.053-4.183-2.274-8.893-3.381-13.52-1.076-4.508-1.385-10.465-4.505-12.956h-1.128c3.13 8.706 3.74 19.921 9.02 26.476zm-21.97-1.69c1.591-0.287 2.393-1.363 3.943-1.69-2.488-6.525-1.339-16.687-4.507-22.532 0.98 8.249-3.17 18.637 0.57 24.222zm5.07-5.07c-0.687-6.261-0.756-13.138-2.253-18.589-0.124-0.439-0.472-0.654-1.127-0.563 1.32 6.193 1.09 13.932 3.38 19.152zm8.45-1.69c0.479 2.574-0.216 7.901 3.943 6.759-0.835-6.894-3.089-17.167-6.195-23.659 0.26 6.129 1.34 11.941 2.26 16.9zm-70.42-6.197c0.435 1.121 2.914-5.765 1.689-4.506-0.49 1.572-1.34 2.783-1.69 4.506zm87.32 16.337c-0.22-2.035-0.748-3.759-1.69-5.07 0.01 2.243 0.54 3.967 1.69 5.07zm3.38 70.409c0.727-0.134 2.37 0.794 3.379 0.562 1.145-0.261 1.296-1.033 2.254-1.126 5.832-0.565 10.389 0.818 14.646 3.38 2.127-0.446 3.914-0.129 5.07 1.69 2.17 0.457 5.542-0.285 6.195 1.689 7.242 0.955 18.461 0.311 24.786-1.689 6.673-2.111 15.354-3.14 17.463-6.761-1.094 0.446-3.414 2.546-4.507 1.128 3.663-1.487 8.569-6.193 11.828-4.507 2.737-4.106-3.217-7.105-7.886-7.323-1.382 3.882-5.271 8.24-9.575 7.323 3.562-2.071 7.855-3.41 7.886-9.013-4.665-2.095-9.857-3.662-16.899-3.379-1.431 0.634-1.301 2.829-2.816 3.379 0.687-3.866-6.233-3.516-11.266-3.379-0.379 2.812-0.735 5.647-3.381 6.195-0.015-2.456 1.797-3.085 2.254-5.069-6.073-2.671-15.563-3.237-23.658-2.254-6.206 0.754-11.728 4.695-15.772 2.254 2.303-2.391 3.593-5.795 4.506-9.576-0.812-0.316-1.374-0.879-1.689-1.69-5.578 1.368-0.655 13.239-7.323 13.519 1.286-3.122 4.456-7.065 2.817-11.266-5.985 0.776-1.708 11.811-7.323 12.956 0.369-4.22 4.144-7.76 2.252-12.392-1.721-0.407-2.052 0.576-3.379 0.562 0.132 5.231 1.568 11.617-3.942 12.394 1.695-3.317 3.556-6.397 2.253-11.266-4.921-1.156-6.528 3.974-9.576 2.816 0.854-3.091 4.001-3.886 7.323-4.506-1.117-4.328-4.468-6.423-4.507-11.83 0.493 1.16-1.462 2.53-1.69 1.126 0.646-2.923 2.46-4.676 2.253-8.449-2.978-0.913-1.095 3.035-3.379 2.816-0.207-2.856 1.807-5.791 0.562-7.886-5.925-0.105-0.077 11.563-4.505 12.956 0.124-3.115 1.283-6.754 0-9.577-3.16-0.342-1.176 4.458-3.381 5.071-0.511-4.642 2.223-6.039 4.507-7.887-0.99-0.512-1.03-1.973-1.69-2.816-2.907-0.277-1.682 3.575-3.942 3.944 0.891-2.489 1.431-5.331 5.069-5.071 1.798-5.9 3.963-11.434 3.942-19.151-1.593-1.293-2.603-1.917-5.069-1.127 0.296 6.771-0.367 17.703-3.942 20.278 0.591-5.722 5.57-17.81 0-20.842-1.406 0.284-1.883 1.498-3.381 1.69 1.321 4.601-1.248 11.562 0 17.461 0.568 2.683 3.536 7.3 0 9.577-0.258-2.746 0.59-6.599-0.562-8.45-2.554-0.488-1.318 2.812-3.38 2.816 2.796-7.105 2.957-14.926 2.253-22.532-2.034-0.253-2.727-1.444-4.506-0.563-1.586 8.617 0.657 20.081 0 26.475-2.291-0.902-0.407-5.977-3.38-6.196-1.924 1.081 1.128 7.135-1.69 7.322v-3.943c-2.039-2.977-3.737-7.384-5.069-11.828-0.899-2.998-0.443-8.713-5.07-8.45-1.767 10.802 9.382 16.511 7.886 27.037-1.701-1.866-0.507-6.628-3.38-7.322 0.032 4.204 0.723 7.685 0 10.14-1.056-0.634-1.197-2.184-2.253-2.818-0.863 2.77 1.814 4.908 0.563 6.197-3.885-9.447-11.107-15.556-14.646-25.348-3.572 1.228-2.213 5.034-1.689 6.759 1.035 3.416 6.547 7.638 9.013 10.704 2.827 3.513 6.081 7.604 7.323 10.702 2 4.992-2.5 6.769-3.38 11.266 1.431 1.573 4.648 1.36 3.943 5.071-1.954-1.991-3.744-4.145-7.886-3.944-2.808 3.465 1.45 9.352 0.563 12.394-4.178-1.643-0.649-10.993-5.07-12.394-2.211 3.153 1.991 7.251 0 10.14-2.1-3.222-0.995-12.437-6.196-10.702-0.41 3.987 3.076 7.049 2.253 9.576-4.331-1.915-2.07-13.26-8.449-11.266-0.227 5.484 3.379 7.135 3.943 11.83-11.547-1.785-22.857-3.806-36.614-3.38-1.511 0.554-0.586 3.545-1.69 4.507-1.024-0.667-0.443-2.937-1.127-3.943-3.708-0.138-10.348-3.18-11.829 1.126-4.43-4.799-16.912-2.772-20.278 1.69-0.193 3.77 4.884 5.241 4.506 7.322-2.345-1.785-4.348-3.913-5.633-6.759-3.691 0.211-11.194 4.899-6.759 6.197 0.901-1.408 7.925 7.29 11.266 6.195-1.852 0.411-0.862-1.118 0-1.126 2.231 1.977 8.258 2.265 7.323 5.633 2.393 0.626 6.36 2.635 7.886 2.254-0.612-0.135-1.352-0.928-0.563-1.127 3.539 2.42 9.17 2.006 12.393 3.38 0.637 0.271-0.201 0.987 1.126 1.126 6.858 0.719 12.154-2.602 17.462-4.506 11.927-4.278 19.184-1.684 31.545-1.689 1.946 2.461 8.514 3.004 7.886 6.195-1.879 0.001-1.923-1.832-3.943-1.69 0.722 3.785 3.171 5.841 5.07 8.449 4.63 1.379 7.472 4.546 12.392 5.633-3.656-4.442-3.241-14.03 0-18.025 4.665-5.75 18.32-4.718 21.405 3.943 1.901 5.335 0.209 10.179-1.689 13.52 7.401-2.552 12.392-7.513 12.956-16.899-0.875-1.613-2.629 1.173-3.381-0.564 2.61-3.06 8.26-4.27 12.43-5.04zm-23.66-50.131c6.372-2.896 7.599-12.917 8.449-21.405-1.234-0.641-2.301-1.454-4.505-1.126 1.6 8.291-3.91 15.962-3.94 22.531zm-20.28-3.379c0.452-1.425 2.319-1.437 3.379-2.254-0.834-3.296-1.355-6.905-1.126-11.266-3.317-0.626-2.879-5.006-7.322-4.507-1.27 6.761 2.94 12.8 5.07 18.027zm56.89-15.773c0.157-1.285-0.137-2.117-1.127-2.254 0.08 1.05 0.38 1.884 1.13 2.254zm-32.67 23.095c3.017-2.347 4.073-6.989 5.633-11.266 1.356-3.724 4.681-8.725 1.688-12.955h-1.688c0.56 10.487-5.9 15.752-5.63 24.221zm-31.54-3.943c0.948-3.284-2.117-6.587-3.38-10.14-1.027-2.885-0.649-7.451-3.943-8.449h-1.126c-0.1 9.113 3.97 14.047 8.45 18.589zm33.79 2.817c1.051 3.046 0.301 6.337-0.563 9.013 1.813-0.951 2.028-3.39 2.816-5.071 3.241-6.898 8.114-12.558 7.323-22.532-0.72-0.03-0.78-0.722-1.69-0.562-2.18 6.835-3.88 14.143-7.89 19.152zm-33.23 2.254c-1.124-3.182-3.358-4.761-5.07-7.323-1.357-2.034-2.926-4.554-3.943-6.759-1.123-2.437-0.455-5.208-3.379-6.761-4.022 3.844-0.019 6.885 1.689 9.577 2.641 4.163 5.44 8.928 7.323 12.392 1.53-0.695 2.64-0.938 3.38-1.126zm-142.52 15.772c-6.275-3.463-12.466-8.589-19.716-7.323-0.343 0.031-0.667 0.084-0.563 0.562 3.622 1.651 7.097 3.76 10.703 5.633 3.737 1.941 7.031 4.202 10.703 6.197 6.058 3.29 13.154 5.208 19.715 7.885 3.074 1.255 6.317 2.792 9.577 3.944 2.937 1.037 6.922 3.532 10.139 1.689-13.265-4.06-28.728-12.05-40.558-18.578zm-27.602-6.197c9.496 5.941 19.9 11.546 30.981 16.335 11.131 4.812 23.098 9.43 35.488 11.266-11.097-4.066-21.035-7.158-30.981-11.829-11.751-5.52-21.856-13.839-35.488-16.901h-1.127c0.064 0.687 0.168 1.333 1.127 1.126zm49.007 11.265c-9.865-4.554-18.622-12.125-28.728-11.83-0.439 0.125-0.655 0.472-0.563 1.128 8.181 3.673 16.448 9.249 25.348 13.519 4.12 1.977 8.889 4.397 13.519 6.197 4.24 1.646 11.287 4.543 14.646 1.689-7.541-3.28-15.816-6.83-24.222-10.71zm274.89-9.012c-10.051 6.098-20.648 11.649-30.981 17.463 8.614 0.592 16.485-5.768 24.222-9.013 6.373-2.672 11.887-5.594 16.899-8.45 1.413-0.804 5.271-0.588 4.505-3.379-5.24 0.667-10.74 3.127-14.64 3.377zm6.2 3.944c-7.01 3.74-14.629 6.943-21.404 10.138-3.604 1.7-7.616 2.649-10.14 5.633 4.696 0.419 9.207-2.096 13.519-3.943 11.146-4.772 22.983-9.461 32.672-14.646 1.728-0.923 5.315-1.723 5.069-4.505-9.2 0.369-13.84 4.18-19.72 7.323zm-299.12-6.197c-0.343 0.032-0.667 0.084-0.563 0.564 11.233 5.51 23.73 11.446 34.924 16.899 3.508 1.708 8.441 4.752 12.393 2.816-15.918-6.07-26.992-19.937-46.754-20.285zm309.26 7.323c-4.061 2.173-8.282 3.925-12.393 5.633-4.298 1.785-8.315 3.904-12.392 5.633-4.144 1.757-9.474 1.905-12.956 5.633 5.453 0.446 10.302-2.626 15.208-4.507 12.871-4.933 25.102-11.11 36.614-16.336 2.182-0.988 5.305-1.689 6.761-3.943-10-0.472-14.75 4.633-20.84 7.897zm10.14-0.563c-13.723 6.807-25.764 11.826-39.431 16.899-2.103 0.782-6.336 1.275-6.76 4.507 26.104-6.191 45.376-19.215 69.286-27.601-10.38-2.012-15.38 2.365-23.1 6.196zm-42.25-2.817c-3.769 3.169-7.548 6.701-11.83 9.576-2.149 1.444-5.335 1.995-6.759 4.507 6.938-0.72 12.173-5.06 17.462-7.886 5.655-3.022 11.657-5.265 16.336-9.576-6.48-0.279-9.86 2.533-15.21 3.38zm-25.35 12.392c5.647 1.179 10.4-2.42 14.082-5.069 3.96-2.849 7.989-5.909 11.267-9.014-11.79-0.897-16.51 10.154-25.35 14.084zm-232.64-12.956c6.837 4.877 16.177 9.892 24.222 13.52 2.683 1.21 6.485 3.836 9.012 0.564-12.958-3.566-17.961-15.087-34.361-15.21 0.064 0.696 0.169 1.343 1.127 1.134zm30.418 7.886c-4.986-3.925-9.286-8.379-15.772-8.45-0.632 0.119-0.877 0.625-1.126 1.126 7.629 4.951 13.787 11.374 24.222 13.52-1.865-2.4-4.667-4.11-7.324-6.2zm194.34 5.07c10.844-1.36 16.329-8.08 23.096-13.519-10.81-0.84-15.56 9.209-23.1 13.519zm-199.4-12.392c-0.135-0.864-0.927-0.083-1.126 0.564 6.552 5.278 13.149 13.51 23.095 13.519-7.941-4.07-11.13-12.899-21.965-14.082zm181.38 0.564c-0.81 4.823-3.849 7.416-6.76 10.139 5.033 0.094 10.448-4.156 11.267-10.139-1.85-0.916-2.16 0.128-4.51 0.001zm19.15 1.69c-2.23 3.591-4.737 6.904-7.888 9.576 7.664 0.121 13.349-6.532 18.026-11.266-2.52-0.67-6.94 1.201-10.14 1.688zm-40.56 9.008c4.693-1.503 7.347-5.044 7.887-10.702-6.13 0.066-4.72 7.672-7.89 10.702zm5.07-0.56c3.435-0.583 8.393-4.321 9.012-9.577-5.94-1.926-6.06 6.647-9.01 9.577zm5.07 0c4.93-1.267 7.293-5.1 9.575-9.013-1-0.5-1.431-1.572-3.379-1.126-0.76 4.685-4.36 6.529-6.2 10.139zm18.03-10.138c-0.802 5.394-5.439 6.951-7.321 11.266 5.446-1.688 9.141-5.128 10.702-10.703-0.67-0.65-2-0.64-3.38-0.565zm-30.42 1.126c-0.438 4.151-3.859 8.044-3.381 11.266 4.313-2.071 7.425-5.344 7.888-11.266-1.24-1.241-2.31 0.561-4.51 0.004zm28.73 10.142c6.519-0.053 8.928-4.216 11.266-8.449-5.28-4.636-7.99 5.689-11.27 8.449zm-159.98 2.25c-2.806-6.019-7.358-10.291-15.209-11.266 4.048 4.776 7.769 9.886 15.209 11.266zm20.28 0.56c-1.166-2.603-3.831-3.653-5.633-6.197-2.101-2.964-3.419-5.856-7.886-5.633 2.1 6.353 6.64 10.263 13.52 11.833zm10.7 0.57c-2.983-2.841-5.294-11.227-11.83-12.392 1.41 6.662 6.25 9.892 11.83 12.392zm4.51-0.57c-4.402-2.92-3.349-11.297-10.139-11.83-0.37 4.71 6.12 11.94 10.14 11.83zm89.56-11.262c0.059 4.751-1.944 7.443-3.379 10.702 4.488-1.521 6.611-5.406 7.323-10.702-0.54-1.394-2.16 0.776-3.94 0zm-110.4 11.262c-2.853-3.532-7.316-5.453-9.013-10.14-2.242 0.364-2.265-1.491-4.506-1.126 1.72 6.536 5.93 10.596 13.52 11.266zm5.07-3.38c1.707 1.375 2.862 4.542 5.633 3.38-4.167-3.532-4.819-10.578-11.83-11.266 0.34 4.596 3.58 5.786 6.2 7.886zm-19.72-6.192c-1.747 0.191-2.691-1.305-3.943 0 1.464 5.709 7.085 10.136 12.393 10.138-2.37-3.83-6.71-5.68-8.45-10.142zm39.43 10.142c-2.189-4.006-1.72-10.672-7.886-10.702 0.88 5.322 3.34 9.062 7.89 10.702zm4.51 1.69c-0.819-3.5-2.167-6.47-2.816-10.14-1.064 0.127-1.243-0.634-2.253-0.562-1.3 4.402 1.24 9.572 5.07 10.702zm150.4 12.39c0.667-0.273 1.278-0.6 1.69-1.126-0.75-0.08-3.11 0.89-1.69 1.13zm-101.96 6.2c-7.83-1.559-13.067-0.876-14.645 5.069-0.199 0.75-1.644 1.927-1.69 2.254-0.492 3.551 0.779 7.119 2.817 10.14 0.972-0.342-0.043-2.672 1.126-2.816 3.071 0.921 3.98 2.596 6.197 1.126-0.231 1.358 1.028 1.224 0.562 2.817-2.679-0.216-2.904 0.034-4.506-1.69-1.273 4.393 2.657 9.041 3.943 14.083 3.763-1.118 2.647-7.116 4.506-10.14 0.748 0.731 2.097 0.742 2.253-0.562-2.65 0.021-2.501-2.757-4.507-3.38-0.053 0.886 0.076 1.954-1.126 1.69 0.008-1.494-0.312-3.317 1.126-3.38 0.564 0.939 2.605 0.399 2.816 1.69-0.113-3.306 3.124-2.21 3.943-0.564 4.77-4.39 1.31-14.06-2.82-16.34zm-90.69 5.63c-1.366 0.416-4.56-1.386-3.379 0 0.99-0.16 2.81 1.58 3.38 0zm92.95 14.08c0.008-0.93 1.562-0.315 1.69-1.126-0.721-0.031-0.78-0.722-1.69-0.564 0.22 0.97-0.84 1.45 0 1.69zm-14.65 0.56c0.903-1.57-2.433-1.558-2.252-0.564 1.06-0.12 1.24 0.64 2.25 0.56zm-3.38 143.08c-0.12-7.965 1.6-15.881-0.564-22.533 0.59 6.91-0.87 15.34 0.56 22.53zm10.14 36.05c-0.326 1.146 0.384 4.438 0.563 1.69-0.105-4.088 0.626-11.722-0.563-14.083v12.39zm1.13 14.09c0.153-0.767-0.349-2.198-0.563-1.126-0.16 0.77 0.34 2.2 0.56 1.13zm0 6.19c-0.114-1.065 0.38-5.565-0.563-3.944 0.11 1.06-0.39 5.57 0.56 3.94z" fill-rule="evenodd"/>
<path clip-rule="evenodd" d="m101.39 129.05c-0.652-1.249 3.565 1.438 5.633 1.126-1.6 1.56-4.51-0.34-5.63-1.13z" fill-rule="evenodd"/>
<metadata><rdf:RDF><cc:Work><dc:format>image/svg+xml</dc:format><dc:type rdf:resource="http://purl.org/dc/dcmitype/StillImage"/><cc:license rdf:resource="http://creativecommons.org/licenses/publicdomain/"/><dc:publisher><cc:Agent rdf:about="http://openclipart.org/"><dc:title>Openclipart</dc:title></cc:Agent></dc:publisher><dc:title>holy spirit</dc:title><dc:date>2007-10-18T00:41:22</dc:date><dc:description>The Principles of Design by G. Woolliscroft Rhead 1905</dc:description><dc:source>http://openclipart.org/detail/7168/holy-spirit-by-johnny_automatic-7168</dc:source><dc:creator><cc:Agent><dc:title>johnny_automatic</dc:title></cc:Agent></dc:creator><dc:subject><rdf:Bag><rdf:li>christianity</rdf:li><rdf:li>clip art</rdf:li><rdf:li>clipart</rdf:li><rdf:li>dove</rdf:li><rdf:li>externalsource</rdf:li><rdf:li>holy ghost</rdf:li><rdf:li>holy spirit</rdf:li><rdf:li>image</rdf:li><rdf:li>media</rdf:li><rdf:li>png</rdf:li><rdf:li>public domain</rdf:li><rdf:li>religion</rdf:li><rdf:li>svg</rdf:li></rdf:Bag></dc:subject></cc:Work><cc:License rdf:about="http://creativecommons.org/licenses/publicdomain/"><cc:permits rdf:resource="http://creativecommons.org/ns#Reproduction"/><cc:permits rdf:resource="http://creativecommons.org/ns#Distribution"/><cc:permits rdf:resource="http://creativecommons.org/ns#DerivativeWorks"/></cc:License></rdf:RDF></metadata></svg>
