<?xml version="1.0"?>
<svg xmlns:rdf="http://www.w3.org/1999/02/22-rdf-syntax-ns#" xmlns="http://www.w3.org/2000/svg" xmlns:cc="http://creativecommons.org/ns#" xmlns:xlink="http://www.w3.org/1999/xlink" xmlns:dc="http://purl.org/dc/elements/1.1/" xmlns:svg="http://www.w3.org/2000/svg" id="svg2" viewBox="0 0 560 730" version="1.0">
  <g id="layer1">
    <path id="path3811" d="m155.27 169.92c-15.12 0.18-30.23 0.37-45.35 0.55-9.82-14.07-17.532-31.63-31.731-41.19-20.972-1.9-41.944-3.81-62.916-5.71-1.756-19.95 22.54-17.65 36.161-16.27 39.886 3.43 80.196 4.75 120.08 3.04 30.16-6.48 60.79-10.714 91.08-16.618 4.38-19.775 8.75-39.55 13.13-59.325 16.87-26.103 45.86 12.136 46.87 36.503 2.59 29.34 26.14 44.12 53.16 48.06 34.18 12.53 70.62 5.55 105.96 5.93 18.83 0.88 48.93-22.68 60.35-0.93 5.11 13.25-9.85 14.08-19.47 15.63-9.65 3.26-21.56 1.62-30.11 5.83-8.17 14.92-20.41 26.9-29.4 41.17-23.65 0.11-47.64-2.95-70.45 4.92-9.1 2.96-22.75 3.57-28.66 9.4 2.48 62.63 12.33 124.71 13.28 187.43 0.94 29.68-1.4 59.42-5.89 88.69-1.02 23.39-0.92 46.7 4.39 69.63 2.71 10.36 1.77 23.46 6.66 32.2 7.45 6.07 24.83 5.56 23.1 17.75-5.49 15.16 16.88 9.28 13.77 23.37 3.7 29.31 7.41 58.63 11.12 87.95-13.9 0.39-28.53 3.74-41.97 2.33-65.34-41.59-130.68-83.19-196.01-124.78 9.74-2.19 23.88-0.25 30.88-5.02 3.34-71.23 6.67-142.46 10.01-213.69-10.15-5.87-6.43-19.69-9.82-29.43 0.63-13.04 7.44-26.99-1.34-38.64-5.73-13.14-14.19-25.73-10.91-40.68 0.6-21.61 1.2-43.21 1.8-64.82-19.25-7.76-38.51-15.52-57.77-23.28zm221.85 414.48c-3.46-26.97-14.05-54.41-10.69-81.15-4.62-25.01 5.48-56.01-12.72-76.52 2.51 52.8 8.76 105.35 11.99 157.99-12.91-4.65-9.66-34.43-12.96-48.05-8.81-25.31 1.96 57.02-11.33 27.29 1.79-14.43-8.57-36.74-6.05-9.72-5.57 37.3-11.54-18.57-9.64-31.4-1.14-35.08-1.21-70.24-2.08-105.29-9.25-19.96-4.28 9.52-5.01 17.33 0.62 43.31 4.88 86.66 3.1 129.94-12.83-3.4-4.29-47.45-7.74-65.72-2.46-28.48 2.82-67.8-6.75-89.69 0 53.66 4.12 107.3 3.77 161.01 13.14 15.35 37.45 2.26 53.81 13.44 4.88 0.32 14.69 10.49 12.3 0.54zm-92.49-93.08l0.03-86.88c-17.28-28.83-6.42 29.85-9.34 42.96-0.32 40 4.8 80.7-2.78 120.18-11.86-15.97-1.05-52.46-6.72-75.94-6.43 25.37 2.26 56.76-8.16 80.21-6.21-11.76-4.43-28.28-7.82-5.38-5.51 21.38-10.32-22.21-10.11 7.7 9.98 3.78 37.68 7.71 44.87 0.57 0.01-27.81 0.02-55.61 0.03-83.42zm18.4 76.38c-3.18-53.56 0.85-107.67-4.5-160.97-15.38-17.94-2.33 43.66-5.88 57.25 1.67 23.75-3.03 57.72 3.25 75.71 7.61-1.77-8.53 51.12 7.59 33.76l-0.46-5.75zm-50.31-32.35c-2.01-3.95 0.91 22.12 0 0zm86.52-35.04c-3.91-29.76 2.78-61.93-8.9-89.97-2.58 33.46 3.58 67.39 3.06 100.99 0.71 17.78 5.76 25.32 5.77 2.33 0.18-4.44 0.66-8.92 0.07-13.35zm11.42-34.69c2.45-13.37-7.63-64.08-7.25-28.77 2.09 28.52 1.55 57.33 6.81 85.53 2.07-18.85 1.03-37.85 0.44-56.76zm-95.82 25.75c0.23-42.1-4.21 25.59-0.23 12.44l0.17-5.6 0.06-6.84zm-10.32 11.19c-5.07-4.32-0.37 7.42 0 0zm0.4-25.51c-2.29 2.98 1.26 14.05 0 0zm23.11-3.15c0.44-27.6 3.58-60.14-2.6-85.04-1.67 32.07-1.71 64.42 0.26 96.47 1.91-3.51 1.81-7.6 2.34-11.43zm-21.14-47.2c1.55-11.74 1.07-67.03-2.73-29.51-0.16 16.17-0.41 79.1 0.92 68.74 0.74-13.07 1.28-26.15 1.81-39.23zm9.04 16.46c-2.48-0.37 1.44 14.27 0 0zm114.49-18.92c8.43-26.5-19.32-35.08-28.59-14.27 16.66-0.52 33.34 49.12 28.59 14.27zm-114.41-25.95c-1.65 1.18 0.16 35.79 0.23 9.65l-0.06-5.09-0.17-4.56zm-18.96-5.58c-2.21 3.74 1.23 17.09 0 0zm95.79-1.51c-7.46-24.79-11.14-50.42-5.26-77.11 0.72 14.32 6.52 64.17 6.85 24.29-1.67-13.84-0.02-40.41-5.16-47.73-2.62 23.26-5.01-31.59-4.98-42.05 0.92-27.64-1.09-55.24-2.85-81.95-34.6-6.34 2.25 12.47-4.57 11.63-28.51-11.94 0.94 4.23-2.81 16.36-14.59-2.1-48.87-28.93-52.06-17.73 25.81 5.53 32.86 22.82 40.66 43.76-20.29 9.24-38.86-34.97-47.78-21.92 4.49 29.07 35.34 35.71 33.41 67.02 2.33 14.48 38.89 41.03 26 44.75-25.48-15.67 13.09 32.68-9.56 11.98-18.57-24.73-25.95-56.25-41.53-83.15-7.63-19.98-13.18-16.24-4.88 2.54 14.49 45.45 32.37 90.52 62.51 128.07 11.39 16.28 0.91 29.24-9.67 8.59-28.65-41.59-52.8-87.92-62.49-137.78-4.02-20.41 3.98-55.15-8.1-66.63-4 31.93-1.66 64.94-7.21 96.32 3.93 22.59 27.46 11.49 19.19 35.86 6.63 23.84 19.5 47.91 34.24 65.67-15.08 15.41-15.88-16.92-26.21-8.14-19.81-18.55-12.46 7.83 4.82 9.95 20.88 7.77 48.54 32.61 67.01 26.53l0.32-4.11 0.11-5.02zm18.14 6c30.66-4.43 10.53-29.87-11-24.64-1.51 7.72-6.28 37.11 11 24.64zm23.38-29.52c-1.99-61.24-9.55-122.22-11.88-183.42 14.15-21.81 44.72-32.95 66.83-48.42 20.9-8.45-23.15 24.78-32.68 33.25-10.25 6.58-24.11 16.31-3.57 7.05 25.11-9.18 44.03-31.37 71.04-35.72 27.17 6.36 12.65-8.55 17.27-9.75 33.31-9.01-21.64-3.66-33.36-4.17-32.23 2.05-63.68-5.03-93.77-15.84-19.08 0.44-44.93-13.227-56.39-12.775-22.83 13.475-53.6 1.57-79.6 6.485-13.91 1.03-58.14 3.64-27.87 19.27 26.5 15.59-13.94-21.36 14.74-6.26 26.67 5.71-11.64 17.8 15.97 23.68 12.58 5.93 24.1 16.73 38.95 12.88 15.29 2.51 35.89-6.7 46.23-5.4-23.41 24.19 36.74-4.9 24.24 24.25 5.28 61.68 5.48 123.67 8.08 185.46 8.32 4.83 25.74 14.26 35.77 9.43zm-11.45-209.92c1.74-12.02 42.51-27.65 14.95-6.29-4.49 2.69-9.3 7.19-14.95 6.29zm-96-13.74c-10.14-5.95-46.31-29.46-35.97-33.83 15.34 13.77 28.4 30.91 49.43 23.78 18.34 10.25-5.78 15.71-13.46 10.05zm-26.74-3.38c-1.2-12.55 16.46 5.73 0 0zm81.14-17.66c-4.85-21.39 8.93 1.57 0 0zm-48.92-2.24c-6.95-13.1 17.03-1.27 0 0zm-64.12-7.58c1.88-10.89 12.53 8.4 0 0zm60.76-4.62c5.91-6.46 5.91 6.46 0 0zm-29.22 189.26c-8.32-14.5-8.52 7.08 0 0zm59.17-127.78c-3.77-6.29-2.51 5.87 0 0zm169.28-11.85c20.02-13.36-8.7-18.88-3.58 2.24l3.58-2.24zm-317.47-14.91c-12.99-6.76-41.77-33.31-8.27-21 15.21-2.34 44.99 28.99 24.71 0.75-19.86-17.08-56.24-4.31-82.324-8.37 0.356 10.22 41.534 1.99 50.394 21.21 3.62 0.78 12.61 11.72 15.49 7.41zm-95.382-23.68c-10.034-9.27-29.379-6.93-6.795 1.46l4.255-0.09 2.54-1.37zm11.121-1.72c23.572 0.04-30.451-22.463-1.289-3.79 0.673 2.6-5.915 8.52 1.289 3.79zm105.54-4.59c-8.23-6.08-1.76 6.53 0 0zm130.72-41.201c-18.07-7.385-5.4 15.607 0 0z" fill="#a9a89b"/>
    <path id="path3799" d="m171.96 699.34c3.03-30.44 4.55-61.03 8.22-91.41 17.6-2.73 11.28-31.07 36.15-26 17.12-0.47 2.59 21.66 13.14 28.04-12.56 22.3 34.36 23.54 21.68 0.94 1.8-29.52 57.79 10.47 58.62-19.82 11.66 4.19-5.08 41.2-25.68 29.16-18.08-1.07-20.14 6.56-1.06 7.04 1.07 18.18 23.45 0.23 18.49 19.74 27.37 1.9 17.66 31.98-6.65 22.46-19.16 5.59-67.73-15.19-50.59 18.05-2.38 11.78 27.17 7.25 11.29 20.08h-84.51l0.9-8.28zm117.56-52.14c-23.36-8.37-14.92 6.67 0 0zm-41.84-0.96c-1.78-9.21-12.7 5.6 0 0zm14.32-23.85c6.32-35.25-14.24 10.12 0 0zm42.5-15.67c-8.23-6.08-1.76 6.54 0 0zm-32.32 100.28c5.23-5.54 7.02 2.97 0 0zm8.54-1.96c2.34-18.15 8.31 8.61 0 0zm13.01 1.53c-4.7-11.09 6.17 2.69 0 0zm8.4-0.43c3.4-5.72 4.39 3.48 0 0zm18.39-1.41c0.67-12.43 10.9 10.34 0 0zm28.71 1.31c0.94-24.6 26.98 10.62 0 0zm14.39 0.3c7.92-18.09 22.63 9.52 0 0zm17.34-0.3c3.56-6.46 6.83 6.57 0 0zm-11.24-16.22c-20.28-9.57 8.44-37.76-0.61-17.55 7.78-2.94 11.79 31.28 0.61 17.55zm11.78 1.16c2.84-15.29-1.94-46.62 1.76-52.44-1.56 15.48 11.51 47.56-0.1 54.17l-1.66-1.73zm-128.24-2.28c2.36-4.98 3.56 5.42 0 0zm100.18-20.38c2.64-9.9 9.14 5.66 0 0zm10.18-14.3c3.92-6.14 3.92 6.14 0 0zm-2.27-9.3c-1.34-30.5 24.84 2.43 0 0zm-48.18-2.43c3.98-6.18 4.34 3.31 0 0zm26.78-37.93c-2.69-21.98 7.51-12.45 0 0zm-59.16-213.73c-1.98-9.42 11.51 7.82 0 0zm-54.65-19.6c-12.11-27.49 5.13-61.05-14.66-84.34-13.2-14.94 16.39-19.47 17.47-3.04 12.5 6.14 17.97 7.87 1.6 5.38-15.2 16.46 14.82 13.07-1.15 25.25-11.26 30.02 3.22 52.92 31.74 63.11-13.66-1.06-31.18-20.76-34.04 1.93l-0.47-3.05-0.49-5.24zm142.39 5.66c-0.35-10.23 12.57 3.86 0 0zm-38.64-10.52c-2.03-9.9 17.26 8.85 0 0zm-116.21-135.45c-1.61-27.38 5.7-13.22 0 0zm152.57-31.79c3.87-18.96 43.66-23.04 61.93-25.38 10.54-1.2 57.61 6.23 28.53 13.96-30.52 0.27-61.29 6.37-90.46 11.42zm-178.14-10.06c-13.08-5.74-26.07-11.9-40.72-9.23-27.07 5.53-52.273-6.71-61.92-33.67-6.631-28.26-54.489-11.13-64.592-22.29 20.445-0.05 40.888 0.24 61.331 0.39 10.3 15.04 22.151 28.92 33.941 42.8 20.16 3.03 37.44-4.69 13.4-19.29-8.51-9.24 32.15 14.99 41.74 17.11 12.98 7.34 37.62 16.87 23.69-6.83-4.04-14.18-36.18-46.39-3.43-25.54 24.56 15.14 62.19 32.87 83 35.02-21.22 10.71-47.92-13.95-60.44 6.27 1.59 15.1 3.03 33.77-16.78 18.94l-4.49-1.78-4.73-1.9zm296.9-37.81c-0.25-27.29 55.09-14.34 53.41-14.32-19.35 4.68-42.75 1.89-53.41 14.32zm39.78-31.81c18.09-13.27 13.31 8.87 0 0zm-495-10.31c-6.588-8.49 17.817 0.48 0 0zm232.2-11.339c3.71-15.386 2.55-62.377 16.07-58.448 21.62-1.37 19.11 33.126 2 31.55 6.73 10.855 32.06 21.104 4.82 28.287-7.61-0.02-15.48 0.725-22.89-1.389zm44.9-14.586c4.8-14.297 1.19 7.9 0 0zm-6.95-33.724c-0.82-21.736 17.83 8.827 0 0z" fill="#292b2a"/>
    <path id="path3723" stroke="#000" stroke-width="1px" fill="none" d="m337.02 362.55l-10.35-214.41c0.5 69.87 1.01 139.74 1.51 209.61"/>
    <path id="path3725" fill-rule="evenodd" fill="#482f0c" d="m251.91 216.47c-3.61 38.59 26.61 68.8 34.43 105.02 10.43 18.89 22.16 36.97 34.4 54.8-9.2 3.48-19.47-29.13-29-37.91-13.55-23-19.22-49.92-32.63-73.34-5.87-13.31-17.63-37.69-7.2-48.57z"/>
    <path id="path3727" fill-rule="evenodd" fill="#482f0c" d="m362.13 184.29c20.17-5.91 31.46-19.21 50.6-35.08 8.33-4.47 46.94-31.87 21.53-12.17-22.57 9.96-35.69 32.58-58.37 41.82-0.51-0.85-6.75 3.87-13.76 5.43z"/>
    <path id="path3729" fill-rule="evenodd" fill="#482f0c" d="m471.29 142.79c-8.34 1.98-33.62 22.31-51.12 27.95-5.47 3.98-34.88 15.86-38.92 16.28-6.83 1.74-1 2.05-17.29 5.43 11.76-3.83 12.35-3.86 15.67-5.49 14.8-2.12 31.69-13.98 42.13-17.33 14.05-6.96 50.14-29.62 45.86-26.11 1.22-0.25 2.45-0.49 3.67-0.73z"/>
    <path id="path3733" fill-rule="evenodd" fill="#482f0c" d="m396.84 127.35c-4.02 16.66-56.94 40.55-22.6 20.22 11.02-3.14 13.83-16.47 22.6-20.22z"/>
    <path id="path3747" fill-rule="evenodd" fill="#482f0c" d="m137.34 119.97c20.39 18.76 45.94 30.66 67.86 46.97-21.88-6.23-44.12-27.8-65.53-40.82-1.43-2.97-10.21-4.42-2.33-6.15z"/>
    <path id="path3749" fill-rule="evenodd" fill="#482f0c" d="m106.56 127.33c20.76 25.15 52.51 37.86 81.28 51.36 16.13 3.34 40.73 15.56 11.01 6.37-31.64-10.93-62.47-26.52-88.19-48.09-0.45-3.59-13.407-8.06-4.1-9.64z"/>
    <path id="path3751" fill-rule="evenodd" fill="#482f0c" d="m166.62 115.36c22.43 19.42 46.9 37.84 75.89 45.65 20.63 8.9 42.66 7.56 49.71 2.23 2.16 2.77-34.05 10.19-47.64 1.67-29.09-9.07-55.13-25.08-77.92-45.42-7.78-2.21-1.87-2.96-0.04-4.13z"/>
    <path id="path3757" fill-rule="evenodd" fill="#482f0c" d="m232.65 111.39c11.58 18 46.48 34.89 55.35 35.47-19.58 2.22-54.25-23.29-55.35-35.47z"/>
    <path id="path3759" fill-rule="evenodd" fill="#482f0c" d="m198.24 110.48c10.82 14.25 45.57 16.3 48.23 24.53-12.25-5.85-51.04-13.67-48.23-24.53z"/>
    <path id="path3767" fill-rule="evenodd" fill="#482f0c" d="m289.6 154.79c9.45-11.78 46.58-24.19 12.74-8.52-4.99 1.9-7.21 8.13-12.74 8.52z"/>
    <path id="path3769" fill-rule="evenodd" fill="#482f0c" d="m362.81 135.37c7.1-15.19 17.13-18.47 3.6-1.02-1.2 0.34-2.4 0.68-3.6 1.02z"/>
    <path id="path3773" fill-rule="evenodd" fill="#482f0c" d="m259.04 218.57c20.09 29.59 31.46 65.55 60.79 88.07-21.45-7.81-35.51-37.85-46.57-58.99-0.89-8.47-22.1-25.07-14.22-29.08z"/>
    <path id="path3775" fill-rule="evenodd" fill="#482f0c" d="m252.49 173.63c8.9 18.79 42.2 34.28 47.11 44.29-15.31-9.47-48.65-30.6-47.11-44.29z"/>
    <path id="path3777" fill-rule="evenodd" fill="#482f0c" d="m272.47 176.77c9.43 8.59 64.15 37.76 25.66 19.71-5.89-5.25-31.71-14.91-25.66-19.71z"/>
    <path id="path3779" fill-rule="evenodd" fill="#482f0c" d="m232.22 176.82c1.94 26.33 1.89 52.55-0.62 78.86 1.16 13.06-17.13 48.55-6.49 16.59 5.1-26.1 7.11-53.22 4.43-79.72 1.1-4.44-4.71-15.62 2.68-15.73z"/>
    <path id="path3781" fill-rule="evenodd" fill="#482f0c" d="m231.77 285.94c28.03 2.2 3.6 29.06 8.35 20.09-5.39-6.9-16.31 24.2-20.45 22.98 1.89-18.9 19.33-22.99 21.83-24.37 12.87-7.87-18.78-18.3-9.73-18.7z"/>
    <path id="path3785" fill-rule="evenodd" fill="#482f0c" d="m210.2 286.48c-0.54-13.88 12.96-13.09 8.53-12.16-7.4 2.04-2.48 11.56-8.53 12.16z"/>
    <path id="path3789" fill-rule="evenodd" fill="#482f0c" d="m222.92 193.56c-2.4 19.01-1.47 43.75-8.45 59.23 3.92-18.45 1-44.98 8.45-59.23z"/>
    <path id="path3791" fill-rule="evenodd" fill="#482f0c" d="m366.5 391.99c-0.99 0.55-34.73 20.57-22.82 12.55-1.73 3.61 27.07-19.88 22.82-12.55z"/>
    <path id="path3793" fill-rule="evenodd" fill="#482f0c" d="m227.01 358.87c19.11-2.19 32.24 16.82 49.24 23.05 18.43 13.57 40.14 21.78 62.64 24.49-11.42 4.01-24.01-4.09-35.54-6.12-18.67-7.63-34.55-20.56-52.5-29.58-3.11-8.37-29.92-11.12-23.84-11.84z"/>
  </g>
  <metadata>
    <rdf:RDF>
      <cc:Work>
        <dc:format>image/svg+xml</dc:format>
        <dc:type rdf:resource="http://purl.org/dc/dcmitype/StillImage"/>
        <cc:license rdf:resource="http://creativecommons.org/licenses/publicdomain/"/>
        <dc:publisher>
          <cc:Agent rdf:about="http://openclipart.org/">
            <dc:title>Openclipart</dc:title>
          </cc:Agent>
        </dc:publisher>
        <dc:title>Christ the Redeemer statue</dc:title>
        <dc:date>2009-03-10T22:38:31</dc:date>
        <dc:description>A vector image of the Christ the Redeemer Statue, from Rio de Janeiro (Brazil). A famous sightseeing. Est&#xE1;tua do Cristo Redentor, no Rio de Janeiro (Brasil).</dc:description>
        <dc:source>http://openclipart.org/detail/22116/christ-the-redeemer-statue-by-laobc</dc:source>
        <dc:creator>
          <cc:Agent>
            <dc:title>laobc</dc:title>
          </cc:Agent>
        </dc:creator>
        <dc:subject>
          <rdf:Bag>
            <rdf:li>brazil</rdf:li>
            <rdf:li>christ</rdf:li>
            <rdf:li>christianity</rdf:li>
            <rdf:li>clip art</rdf:li>
            <rdf:li>clipart</rdf:li>
            <rdf:li>man</rdf:li>
            <rdf:li>religion</rdf:li>
            <rdf:li>rio de janeiro</rdf:li>
            <rdf:li>sightseeing</rdf:li>
            <rdf:li>statue</rdf:li>
          </rdf:Bag>
        </dc:subject>
      </cc:Work>
      <cc:License rdf:about="http://creativecommons.org/licenses/publicdomain/">
        <cc:permits rdf:resource="http://creativecommons.org/ns#Reproduction"/>
        <cc:permits rdf:resource="http://creativecommons.org/ns#Distribution"/>
        <cc:permits rdf:resource="http://creativecommons.org/ns#DerivativeWorks"/>
      </cc:License>
    </rdf:RDF>
  </metadata>
</svg>
